<svg width="33" height="33" viewBox="0 0 33 33" fill="none" xmlns="http://www.w3.org/2000/svg">
<rect width="32.5952" height="32.481" rx="16.2405" fill="#565757"/>
<path d="M15.5454 19.64L10.7494 14.158C10.1834 13.513 10.6434 12.5 11.5024 12.5H21.0944C21.2866 12.4998 21.4748 12.5551 21.6365 12.6591C21.7981 12.7632 21.9263 12.9116 22.0058 13.0867C22.0853 13.2617 22.1126 13.456 22.0845 13.6462C22.0564 13.8364 21.974 14.0144 21.8474 14.159L17.0514 19.639C16.9575 19.7464 16.8417 19.8325 16.7119 19.8915C16.582 19.9505 16.441 19.981 16.2984 19.981C16.1557 19.981 16.0147 19.9505 15.8848 19.8915C15.755 19.8325 15.6392 19.7464 15.5454 19.639V19.64Z" fill="#D6D8DD"/>
</svg>
