<svg width="24" height="25" viewBox="0 0 24 25" fill="none" xmlns="http://www.w3.org/2000/svg">
<path d="M12 3.21183C10.0716 3.21183 8.18657 3.78366 6.58319 4.855C4.97981 5.92635 3.73013 7.44909 2.99217 9.23067C2.25422 11.0122 2.06113 12.9726 2.43734 14.864C2.81355 16.7553 3.74214 18.4926 5.10571 19.8561C6.46927 21.2197 8.20655 22.1483 10.0979 22.5245C11.9892 22.9007 13.9496 22.7076 15.7312 21.9697C17.5127 21.2317 19.0355 19.982 20.1068 18.3786C21.1782 16.7753 21.75 14.8902 21.75 12.9618C21.747 10.3769 20.7188 7.89866 18.891 6.07083C17.0632 4.24299 14.5849 3.21481 12 3.21183ZM15.375 9.96183C15.5975 9.96183 15.815 10.0278 16 10.1514C16.185 10.275 16.3292 10.4507 16.4144 10.6563C16.4995 10.8619 16.5218 11.0881 16.4784 11.3063C16.435 11.5245 16.3278 11.725 16.1705 11.8823C16.0132 12.0397 15.8127 12.1468 15.5945 12.1902C15.3762 12.2336 15.15 12.2113 14.9445 12.1262C14.7389 12.041 14.5632 11.8969 14.4396 11.7118C14.316 11.5268 14.25 11.3093 14.25 11.0868C14.25 10.7885 14.3685 10.5023 14.5795 10.2913C14.7905 10.0804 15.0766 9.96183 15.375 9.96183ZM8.625 9.96183C8.8475 9.96183 9.06501 10.0278 9.25001 10.1514C9.43502 10.275 9.57921 10.4507 9.66436 10.6563C9.74951 10.8619 9.77179 11.0881 9.72838 11.3063C9.68497 11.5245 9.57783 11.725 9.42049 11.8823C9.26316 12.0397 9.0627 12.1468 8.84447 12.1902C8.62625 12.2336 8.40004 12.2113 8.19448 12.1262C7.98891 12.041 7.81321 11.8969 7.68959 11.7118C7.56598 11.5268 7.5 11.3093 7.5 11.0868C7.5 10.7885 7.61852 10.5023 7.8295 10.2913C8.04048 10.0804 8.32663 9.96183 8.625 9.96183ZM16.5473 15.5871C16.0863 16.3852 15.4234 17.0478 14.6252 17.5086C13.827 17.9693 12.9216 18.2118 12 18.2118C11.0784 18.2118 10.173 17.9693 9.37476 17.5086C8.57655 17.0478 7.91365 16.3852 7.45265 15.5871C7.40238 15.5018 7.36949 15.4074 7.35589 15.3093C7.34229 15.2113 7.34824 15.1115 7.3734 15.0157C7.39856 14.9199 7.44243 14.8301 7.50248 14.7514C7.56254 14.6727 7.63758 14.6066 7.72329 14.557C7.809 14.5075 7.90368 14.4754 8.00186 14.4626C8.10004 14.4498 8.19979 14.4566 8.29534 14.4825C8.39089 14.5085 8.48036 14.5531 8.55858 14.6138C8.6368 14.6745 8.70223 14.7501 8.75109 14.8362C9.08035 15.4065 9.55393 15.8801 10.1242 16.2093C10.6945 16.5386 11.3415 16.7119 12 16.7119C12.6585 16.7119 13.3055 16.5386 13.8758 16.2093C14.4461 15.8801 14.9196 15.4065 15.2489 14.8362C15.2978 14.7501 15.3632 14.6745 15.4414 14.6138C15.5196 14.5531 15.6091 14.5085 15.7047 14.4825C15.8002 14.4566 15.8999 14.4498 15.9981 14.4626C16.0963 14.4754 16.191 14.5075 16.2767 14.557C16.3624 14.6066 16.4375 14.6727 16.4975 14.7514C16.5576 14.8301 16.6014 14.9199 16.6266 15.0157C16.6518 15.1115 16.6577 15.2113 16.6441 15.3093C16.6305 15.4074 16.5976 15.5018 16.5473 15.5871Z" fill="#FFE600"/>
</svg>
