<svg width="22" height="24" viewBox="0 0 22 24" fill="none" xmlns="http://www.w3.org/2000/svg">
<path d="M20.6517 15.3414L15.6405 12.951L13.5214 11.9402C13.5746 11.9066 13.6251 11.8685 13.6773 11.833H16.4597C16.6666 11.833 16.865 11.7508 17.0113 11.6045C17.1576 11.4581 17.2398 11.2597 17.2398 11.0528V9H17.2328C17.1477 6.1392 16.1541 3.6224 14.6619 2.04416C13.875 1.1568 12.8552 0.553917 11.7144 0.373757C11.6635 0.365437 11.6126 0.357757 11.5614 0.351037C11.5026 0.343677 11.444 0.336317 11.3845 0.331517C11.2566 0.319593 11.1283 0.313294 10.9998 0.312637H10.9992C10.8718 0.312637 10.7461 0.319997 10.6206 0.330877C10.5605 0.335997 10.501 0.343357 10.4414 0.350717C10.3915 0.357117 10.3419 0.364157 10.2926 0.372477C9.16112 0.549437 8.14832 1.14304 7.36368 2.0176C5.85712 3.59424 4.85264 6.12288 4.76688 9.00032H4.76016V11.0531C4.76016 11.26 4.84236 11.4585 4.98866 11.6048C5.13497 11.7511 5.33341 11.8333 5.54032 11.8333H8.3304C8.40656 11.8851 8.4824 11.9379 8.56112 11.9853L6.53168 12.9302L1.35792 15.3398C0.908321 15.5504 0.613281 16.0573 0.613281 16.6234V22.3082C0.613281 23.0701 1.14416 23.6877 1.79984 23.6877H20.2011C20.8568 23.6877 21.3877 23.0701 21.3877 22.3082V16.6227C21.3874 16.0586 21.0968 15.5565 20.6517 15.3414Z" fill="#C4C4C4"/>
</svg>
