<svg width="16" height="17" viewBox="0 0 16 17" fill="none" xmlns="http://www.w3.org/2000/svg">
<path d="M8.95465 5.10051L13.7506 10.5825C14.3166 11.2275 13.8566 12.2405 12.9976 12.2405L3.40565 12.2405C3.2134 12.2407 3.02519 12.1854 2.86354 12.0814C2.70189 11.9773 2.57366 11.8289 2.4942 11.6538C2.41474 11.4788 2.38743 11.2845 2.41553 11.0943C2.44363 10.9042 2.52596 10.7261 2.65265 10.5815L7.44865 5.10151C7.54251 4.9941 7.65826 4.90801 7.78814 4.84903C7.91802 4.79005 8.05901 4.75953 8.20165 4.75953C8.34429 4.75953 8.48528 4.79005 8.61516 4.84903C8.74503 4.90801 8.86079 4.9941 8.95465 5.10151V5.10051Z" fill="#D6D8DD"/>
</svg>
