<svg width="12" height="13" viewBox="0 0 12 13" fill="none" xmlns="http://www.w3.org/2000/svg">
<rect y="0.431335" width="12" height="12" rx="6" fill="#C1436D"/>
<path d="M8.20425 6.67209C8.33025 6.51046 8.4 6.31243 8.4 6.10638C8.4 5.77948 8.21175 5.47005 7.90875 5.2975C7.83075 5.25309 7.74193 5.22971 7.6515 5.22979H5.853L5.898 4.335C5.9085 4.11876 5.82975 3.91345 5.67675 3.75691C5.60167 3.67976 5.51108 3.61837 5.41059 3.57655C5.3101 3.53472 5.20184 3.51334 5.0925 3.51374C4.7025 3.51374 4.3575 3.76856 4.254 4.13332L3.60975 6.39761H2.64C2.50725 6.39761 2.4 6.50172 2.4 6.63059V9.28075C2.4 9.40962 2.50725 9.51373 2.64 9.51373H7.14975C7.21875 9.51373 7.28625 9.50063 7.3485 9.47442C7.7055 9.32662 7.93575 8.98807 7.93575 8.61239C7.93575 8.52065 7.92225 8.43037 7.89525 8.343C8.02125 8.18137 8.091 7.98334 8.091 7.77729C8.091 7.68556 8.0775 7.59528 8.0505 7.50791C8.1765 7.34628 8.24625 7.14825 8.24625 6.9422C8.24475 6.85047 8.23125 6.75946 8.20425 6.67209ZM2.94 8.98953V6.92182H3.5475V8.98953H2.94ZM7.713 6.41945L7.54875 6.55778L7.653 6.74271C7.68735 6.80363 7.70516 6.87203 7.70475 6.94147C7.70475 7.06161 7.65075 7.17591 7.55775 7.25454L7.3935 7.39288L7.49775 7.5778C7.5321 7.63872 7.54991 7.70712 7.5495 7.77657C7.5495 7.8967 7.4955 8.011 7.4025 8.08964L7.23825 8.22797L7.3425 8.4129C7.37685 8.47381 7.39466 8.54222 7.39425 8.61166C7.39425 8.77475 7.29525 8.92181 7.14225 8.9888H4.0275V6.89852L4.77375 4.27384C4.79299 4.20657 4.8343 4.14722 4.89141 4.10478C4.94853 4.06234 5.01833 4.03914 5.09025 4.03867C5.14725 4.03867 5.2035 4.05469 5.2485 4.08745C5.32275 4.14133 5.3625 4.22287 5.358 4.30951L5.286 5.754H7.644C7.7775 5.83336 7.86 5.96732 7.86 6.10638C7.86 6.22651 7.806 6.34009 7.713 6.41945Z" fill="#E5E5E5"/>
</svg>
