<svg width="21" height="21" viewBox="0 0 21 21" fill="none" xmlns="http://www.w3.org/2000/svg">
<path d="M17.8027 10.8551C18.1309 10.4215 18.3125 9.89026 18.3125 9.33752C18.3125 8.46057 17.8223 7.6305 17.0332 7.16761C16.8301 7.04846 16.5988 6.98575 16.3633 6.98597H11.6797L11.7969 4.58558C11.8242 4.0055 11.6191 3.45472 11.2207 3.0348C11.0252 2.82783 10.7893 2.66315 10.5276 2.55095C10.2659 2.43874 9.98395 2.3814 9.69922 2.38246C8.68359 2.38246 7.78516 3.06605 7.51562 4.04457L5.83789 10.1188H3.3125C2.9668 10.1188 2.6875 10.3981 2.6875 10.7438V17.8531C2.6875 18.1988 2.9668 18.4781 3.3125 18.4781H15.0566C15.2363 18.4781 15.4121 18.443 15.5742 18.3727C16.5039 17.9762 17.1035 17.068 17.1035 16.0602C17.1035 15.8141 17.0684 15.5719 16.998 15.3375C17.3262 14.9039 17.5078 14.3727 17.5078 13.8199C17.5078 13.5738 17.4727 13.3317 17.4023 13.0973C17.7305 12.6637 17.9121 12.1324 17.9121 11.5797C17.9082 11.3336 17.873 11.0895 17.8027 10.8551ZM4.09375 17.0719V11.525H5.67578V17.0719H4.09375ZM16.5234 10.1774L16.0957 10.5485L16.3672 11.0446C16.4566 11.208 16.503 11.3915 16.502 11.5778C16.502 11.9 16.3613 12.2067 16.1191 12.4176L15.6914 12.7887L15.9629 13.2848C16.0523 13.4482 16.0987 13.6317 16.0977 13.818C16.0977 14.1402 15.957 14.4469 15.7148 14.6578L15.2871 15.0289L15.5586 15.525C15.648 15.6884 15.6944 15.8719 15.6934 16.0582C15.6934 16.4957 15.4355 16.8902 15.0371 17.0699H6.92578V11.4625L8.86914 4.42152C8.91925 4.24105 9.02682 4.08184 9.17555 3.968C9.32428 3.85416 9.50607 3.7919 9.69336 3.79066C9.8418 3.79066 9.98828 3.83363 10.1055 3.92152C10.2988 4.06605 10.4023 4.2848 10.3906 4.51722L10.2031 8.39221H16.3438C16.6914 8.6051 16.9062 8.96448 16.9062 9.33752C16.9062 9.65979 16.7656 9.96448 16.5234 10.1774Z" fill="#C1436D"/>
</svg>
