<svg width="24" height="25" viewBox="0 0 24 25" fill="none" xmlns="http://www.w3.org/2000/svg">
<path d="M21.375 8.04699L18.375 9.77433V6.21183C18.375 5.38449 17.7023 4.71183 16.875 4.71183H3C2.17266 4.71183 1.5 5.38449 1.5 6.21183V19.7118C1.5 20.5392 2.17266 21.2118 3 21.2118H16.875C17.7023 21.2118 18.375 20.5392 18.375 19.7118V16.1493L21.375 17.8767C21.8742 18.165 22.5 17.804 22.5 17.2298V8.69621C22.5 8.11964 21.8742 7.7587 21.375 8.04699ZM7.6875 9.21183C7.6875 9.31496 7.60313 9.39933 7.5 9.39933H4.875C4.77187 9.39933 4.6875 9.31496 4.6875 9.21183V8.08683C4.6875 7.98371 4.77187 7.89933 4.875 7.89933H7.5C7.60313 7.89933 7.6875 7.98371 7.6875 8.08683V9.21183ZM20.8125 15.6103L18.375 14.2087V11.7173L20.8125 10.3134V15.6103Z" fill="#FF0000"/>
</svg>
