<svg width="24" height="24" viewBox="0 0 24 24" fill="none" xmlns="http://www.w3.org/2000/svg">
<path d="M8.90399 16.5H12.522C12.508 16.665 12.5 16.832 12.5 17C12.5 18.201 12.957 19.361 13.772 20.488C13.232 21.447 12.615 21.999 12 21.999C10.803 21.999 9.59999 19.905 8.96199 16.795L8.90399 16.501V16.5Z" fill="#C4C4C4"/>
<path d="M8.67401 15H12.874C13.366 13.7446 14.3004 12.7127 15.501 12.099V12.001C15.501 11.315 15.475 10.646 15.425 10.001H8.57501L8.54201 10.489C8.45511 11.9937 8.49928 13.503 8.67401 15V15Z" fill="#C4C4C4"/>
<path d="M18 11.5C19.543 11.5 20.937 12.135 21.935 13.158C22.0568 12.1049 22.0119 11.0392 21.802 10H16.932L16.97 10.657C16.985 10.965 16.994 11.277 16.999 11.591C17.323 11.531 17.659 11.5 18 11.5Z" fill="#C4C4C4"/>
<path d="M3.06598 16.501H7.37198C7.73598 18.583 8.35498 20.355 9.16398 21.594C6.62151 20.8394 4.48143 19.1085 3.21198 16.78L3.06598 16.501Z" fill="#C4C4C4"/>
<path d="M2.19898 10H7.06898C6.96437 11.4719 6.9754 12.9498 7.10198 14.42L7.15898 15H2.45598C1.94944 13.3818 1.86068 11.6617 2.19798 10H2.19898Z" fill="#C4C4C4"/>
<path d="M14.944 2.577L14.836 2.407C16.3223 2.84815 17.6862 3.62797 18.8202 4.68519C19.9543 5.7424 20.8278 7.04821 21.372 8.5H16.782C16.466 6.084 15.825 4.008 14.944 2.577V2.577Z" fill="#C4C4C4"/>
<path d="M9.042 2.444L9.164 2.407C8.283 3.757 7.628 5.736 7.28 8.06L7.218 8.5H2.63C3.16649 7.06832 4.02323 5.77828 5.13473 4.72848C6.24623 3.67868 7.58306 2.89693 9.043 2.443L9.042 2.444Z" fill="#C4C4C4"/>
<path d="M12 2.002C13.319 2.002 14.646 4.544 15.214 8.185L15.261 8.5H8.73901C9.28001 4.691 10.644 2.002 12 2.002Z" fill="#C4C4C4"/>
<path d="M22.5 17C22.5 15.8065 22.0259 14.6619 21.182 13.818C20.3381 12.9741 19.1935 12.5 18 12.5C16.8065 12.5 15.6619 12.9741 14.818 13.818C13.9741 14.6619 13.5 15.8065 13.5 17C13.5 18.863 14.92 20.815 17.7 22.9C17.7865 22.9649 17.8918 23 18 23C18.1082 23 18.2135 22.9649 18.3 22.9C21.08 20.815 22.5 18.863 22.5 17ZM16.5 17C16.5 16.6022 16.658 16.2206 16.9393 15.9393C17.2206 15.658 17.6022 15.5 18 15.5C18.3978 15.5 18.7794 15.658 19.0607 15.9393C19.342 16.2206 19.5 16.6022 19.5 17C19.5 17.3978 19.342 17.7794 19.0607 18.0607C18.7794 18.342 18.3978 18.5 18 18.5C17.6022 18.5 17.2206 18.342 16.9393 18.0607C16.658 17.7794 16.5 17.3978 16.5 17Z" fill="#C4C4C4"/>
</svg>
