<svg width="22" height="24" viewBox="0 0 22 24" fill="none" xmlns="http://www.w3.org/2000/svg">
<g clip-path="url(#clip0)">
<path d="M14.145 16.629C14.0831 15.7888 14.0658 14.946 14.093 14.104L14.092 14.141C14.8445 13.3609 15.3138 12.3512 15.425 11.273L15.427 11.252C15.766 11.224 16.301 10.894 16.457 9.586C16.5041 9.36073 16.4863 9.12673 16.4058 8.91114C16.3253 8.69556 16.1852 8.50723 16.002 8.368L15.999 8.366C16.551 6.706 17.697 1.57 13.878 1.04C13.485 0.35 12.479 0 11.171 0C5.938 0.096 5.307 3.951 6.451 8.366C6.26628 8.5065 6.12539 8.6967 6.04482 8.91435C5.96424 9.13199 5.94731 9.36808 5.996 9.595L5.995 9.587C6.155 10.893 6.686 11.225 7.025 11.253C7.14391 12.3432 7.62817 13.361 8.399 14.141C8.42435 14.9978 8.40499 15.8553 8.341 16.71L8.346 16.629C7.308 19.413 0.32 18.631 0 24H22.458C22.136 18.631 15.18 19.413 14.144 16.629H14.145Z" fill="#C4C4C4"/>
</g>
<defs>
<clipPath id="clip0">
<rect width="22" height="24" fill="white"/>
</clipPath>
</defs>
</svg>
