<svg width="24" height="25" viewBox="0 0 24 25" fill="none" xmlns="http://www.w3.org/2000/svg">
<path d="M4.5 14.6813C3.90326 14.6813 3.33097 14.4442 2.90901 14.0223C2.48705 13.6003 2.25 13.028 2.25 12.4313C2.25 11.8346 2.48705 11.2623 2.90901 10.8403C3.33097 10.4183 3.90326 10.1813 4.5 10.1813C5.09674 10.1813 5.66903 10.4183 6.09099 10.8403C6.51295 11.2623 6.75 11.8346 6.75 12.4313C6.75 13.028 6.51295 13.6003 6.09099 14.0223C5.66903 14.4442 5.09674 14.6813 4.5 14.6813ZM12 14.6813C11.4033 14.6813 10.831 14.4442 10.409 14.0223C9.98705 13.6003 9.75 13.028 9.75 12.4313C9.75 11.8346 9.98705 11.2623 10.409 10.8403C10.831 10.4183 11.4033 10.1813 12 10.1813C12.5967 10.1813 13.169 10.4183 13.591 10.8403C14.0129 11.2623 14.25 11.8346 14.25 12.4313C14.25 13.028 14.0129 13.6003 13.591 14.0223C13.169 14.4442 12.5967 14.6813 12 14.6813ZM19.5 14.6813C18.9033 14.6813 18.331 14.4442 17.909 14.0223C17.4871 13.6003 17.25 13.028 17.25 12.4313C17.25 11.8346 17.4871 11.2623 17.909 10.8403C18.331 10.4183 18.9033 10.1813 19.5 10.1813C20.0967 10.1813 20.669 10.4183 21.091 10.8403C21.5129 11.2623 21.75 11.8346 21.75 12.4313C21.75 13.028 21.5129 13.6003 21.091 14.0223C20.669 14.4442 20.0967 14.6813 19.5 14.6813Z" fill="#E5E5E5"/>
</svg>
