<svg width="16" height="17" viewBox="0 0 16 17" fill="none" xmlns="http://www.w3.org/2000/svg">
<path d="M7.45014 11.8995L2.65414 6.41752C2.08814 5.77252 2.54814 4.75952 3.40714 4.75952H12.9991C13.1914 4.75936 13.3796 4.81461 13.5412 4.91866C13.7029 5.02272 13.8311 5.17116 13.9106 5.34621C13.99 5.52127 14.0174 5.71552 13.9893 5.9057C13.9612 6.09588 13.8788 6.27393 13.7521 6.41852L8.95614 11.8985C8.86227 12.0059 8.74652 12.092 8.61665 12.151C8.48677 12.21 8.34578 12.2405 8.20314 12.2405C8.06049 12.2405 7.9195 12.21 7.78963 12.151C7.65975 12.092 7.544 12.0059 7.45014 11.8985V11.8995Z" fill="#D6D8DD"/>
</svg>
