<svg width="24" height="25" viewBox="0 0 24 25" fill="none" xmlns="http://www.w3.org/2000/svg">
<g clip-path="url(#clip0)">
<path d="M22.8 0.96183H6C5.68174 0.96183 5.37652 1.11987 5.15147 1.40117C4.92643 1.68247 4.8 2.06401 4.8 2.46183V6.96183H10.8V3.96183H18V18.9618H22.8C23.1183 18.9618 23.4235 18.8038 23.6485 18.5225C23.8736 18.2412 24 17.8597 24 17.4618V2.46183C24 2.06401 23.8736 1.68247 23.6485 1.40117C23.4235 1.11987 23.1183 0.96183 22.8 0.96183V0.96183ZM8.7 5.78996C8.7 5.90184 8.66444 6.00915 8.60115 6.08827C8.53786 6.16738 8.45201 6.21183 8.3625 6.21183H7.2375C7.14799 6.21183 7.06215 6.16738 6.99885 6.08827C6.93556 6.00915 6.9 5.90184 6.9 5.78996V4.38371C6.9 4.27182 6.93556 4.16451 6.99885 4.08539C7.06215 4.00628 7.14799 3.96183 7.2375 3.96183H8.3625C8.45201 3.96183 8.53786 4.00628 8.60115 4.08539C8.66444 4.16451 8.7 4.27182 8.7 4.38371V5.78996ZM21.9 15.54C21.9 15.6518 21.8644 15.7591 21.8011 15.8383C21.7379 15.9174 21.652 15.9618 21.5625 15.9618H20.4375C20.348 15.9618 20.2621 15.9174 20.1989 15.8383C20.1356 15.7591 20.1 15.6518 20.1 15.54V14.1337C20.1 14.0218 20.1356 13.9145 20.1989 13.8354C20.2621 13.7563 20.348 13.7118 20.4375 13.7118H21.5625C21.652 13.7118 21.7379 13.7563 21.8011 13.8354C21.8644 13.9145 21.9 14.0218 21.9 14.1337V15.54ZM21.9 10.665C21.9 10.7768 21.8644 10.8841 21.8011 10.9633C21.7379 11.0424 21.652 11.0868 21.5625 11.0868H20.4375C20.348 11.0868 20.2621 11.0424 20.1989 10.9633C20.1356 10.8841 20.1 10.7768 20.1 10.665V9.25871C20.1 9.14682 20.1356 9.03951 20.1989 8.96039C20.2621 8.88128 20.348 8.83683 20.4375 8.83683H21.5625C21.652 8.83683 21.7379 8.88128 21.8011 8.96039C21.8644 9.03951 21.9 9.14682 21.9 9.25871V10.665ZM21.9 5.78996C21.9 5.90184 21.8644 6.00915 21.8011 6.08827C21.7379 6.16738 21.652 6.21183 21.5625 6.21183H20.4375C20.348 6.21183 20.2621 6.16738 20.1989 6.08827C20.1356 6.00915 20.1 5.90184 20.1 5.78996V4.38371C20.1 4.27182 20.1356 4.16451 20.1989 4.08539C20.2621 4.00628 20.348 3.96183 20.4375 3.96183H21.5625C21.652 3.96183 21.7379 4.00628 21.8011 4.08539C21.8644 4.16451 21.9 4.27182 21.9 4.38371V5.78996ZM15.6 8.46183H1.2C0.88174 8.46183 0.576516 8.61987 0.351472 8.90117C0.126428 9.18248 0 9.56401 0 9.96183L0 23.4618C0 23.8597 0.126428 24.2412 0.351472 24.5225C0.576516 24.8038 0.88174 24.9618 1.2 24.9618H15.6C15.9183 24.9618 16.2235 24.8038 16.4485 24.5225C16.6736 24.2412 16.8 23.8597 16.8 23.4618V9.96183C16.8 9.56401 16.6736 9.18248 16.4485 8.90117C16.2235 8.61987 15.9183 8.46183 15.6 8.46183ZM3.6 11.4618C3.83734 11.4618 4.06935 11.5498 4.26668 11.7146C4.46402 11.8794 4.61783 12.1137 4.70866 12.3878C4.79948 12.6619 4.82325 12.9635 4.77694 13.2545C4.73064 13.5454 4.61635 13.8127 4.44853 14.0225C4.28071 14.2323 4.06689 14.3751 3.83411 14.433C3.60133 14.4909 3.36005 14.4612 3.14078 14.3476C2.92151 14.2341 2.73409 14.0419 2.60224 13.7952C2.47038 13.5485 2.4 13.2585 2.4 12.9618C2.4 12.564 2.52643 12.1825 2.75147 11.9012C2.97652 11.6199 3.28174 11.4618 3.6 11.4618ZM14.4 21.9618H2.4V20.4618L4.8 17.4618L6 18.9618L10.8 12.9618L14.4 17.4618V21.9618Z" fill="#00B412"/>
</g>
<defs>
<clipPath id="clip0">
<rect width="24" height="24" fill="white" transform="translate(0 0.96183)"/>
</clipPath>
</defs>
</svg>
