<svg width="24" height="18" viewBox="0 0 24 18" fill="none" xmlns="http://www.w3.org/2000/svg">
<path d="M21.375 5.31387L18.375 6.60938V3.9375C18.375 3.31699 17.7023 2.8125 16.875 2.8125H3C2.17266 2.8125 1.5 3.31699 1.5 3.9375V14.0625C1.5 14.683 2.17266 15.1875 3 15.1875H16.875C17.7023 15.1875 18.375 14.683 18.375 14.0625V11.3906L21.375 12.6861C21.8742 12.9023 22.5 12.6316 22.5 12.201V5.80078C22.5 5.36836 21.8742 5.09766 21.375 5.31387ZM7.6875 6.1875C7.6875 6.26484 7.60313 6.32812 7.5 6.32812H4.875C4.77187 6.32812 4.6875 6.26484 4.6875 6.1875V5.34375C4.6875 5.26641 4.77187 5.20312 4.875 5.20312H7.5C7.60313 5.20312 7.6875 5.26641 7.6875 5.34375V6.1875ZM20.8125 10.9863L18.375 9.93516V8.0666L20.8125 7.01367V10.9863Z" fill="#C4C4C4"/>
</svg>
