<svg width="21" height="21" viewBox="0 0 21 21" fill="none" xmlns="http://www.w3.org/2000/svg">
<path d="M3.16195 19.8063H1.125V9.62397C1.12313 8.92839 1.28399 8.24202 1.59473 7.61971C2.01662 6.68871 2.69763 5.89886 3.5564 5.34454C4.41516 4.79022 5.41537 4.49487 6.4375 4.49377H11.7717V1.05627H13.4265L19.8214 7.4512L13.4038 13.8688H11.7717V10.4313H8.30253C7.57687 10.433 6.87157 10.6714 6.29358 11.1102C5.7156 11.5489 5.29645 12.1642 5.09968 12.8627L3.16195 19.8063ZM6.4375 5.74377C5.65403 5.74461 4.88744 5.97151 4.22973 6.39724C3.57202 6.82297 3.05113 7.42945 2.72957 8.14389L2.71816 8.16788C2.49108 8.61958 2.37352 9.1184 2.375 9.62397V17.9759L3.8957 12.5267C4.1664 11.5656 4.74311 10.7191 5.53838 10.1153C6.33364 9.51162 7.30408 9.18369 8.30253 9.18127H13.0217V12.483L18.0536 7.4512L13.0217 2.41932V5.74377H6.4375Z" fill="#C1436D"/>
</svg>
