<svg width="32" height="32" viewBox="0 0 32 32" fill="none" xmlns="http://www.w3.org/2000/svg">
<path d="M26.6667 3.55556H5.33332C4.86182 3.55556 4.40964 3.74286 4.07624 4.07625C3.74284 4.40965 3.55554 4.86184 3.55554 5.33333V26.6667C3.55554 27.1382 3.74284 27.5903 4.07624 27.9237C4.40964 28.2571 4.86182 28.4444 5.33332 28.4444H26.6667C27.1381 28.4444 27.5903 28.2571 27.9237 27.9237C28.2571 27.5903 28.4444 27.1382 28.4444 26.6667V5.33333C28.4444 4.86184 28.2571 4.40965 27.9237 4.07625C27.5903 3.74286 27.1381 3.55556 26.6667 3.55556ZM17.7778 6.22222H19.5555V8.88889H17.7778V6.22222ZM12.4444 6.22222H14.2222V8.88889H12.4444V6.22222ZM8.88888 25.7778H7.1111V23.1111H8.88888V25.7778ZM8.88888 8.88889H7.1111V6.22222H8.88888V8.88889ZM14.2222 25.7778H12.4444V23.1111H14.2222V25.7778ZM19.5555 25.7778H17.7778V23.1111H19.5555V25.7778ZM22.3644 16.7467L13.68 20.6222C13.5449 20.6794 13.3977 20.7023 13.2516 20.6888C13.1055 20.6754 12.9651 20.6259 12.8427 20.545C12.7204 20.464 12.62 20.354 12.5505 20.2248C12.481 20.0956 12.4446 19.9512 12.4444 19.8044V12.0622C12.4447 11.914 12.4821 11.7681 12.5532 11.638C12.6243 11.5079 12.7267 11.3976 12.8513 11.3172C12.9759 11.2368 13.1186 11.1889 13.2664 11.1777C13.4143 11.1665 13.5625 11.1925 13.6978 11.2533L22.3644 15.1111C22.5248 15.1794 22.6615 15.2934 22.7576 15.4388C22.8537 15.5842 22.9049 15.7546 22.9049 15.9289C22.9049 16.1032 22.8537 16.2736 22.7576 16.419C22.6615 16.5644 22.5248 16.6784 22.3644 16.7467ZM24.8889 25.7778H23.1111V23.1111H24.8889V25.7778ZM24.8889 8.88889H23.1111V6.22222H24.8889V8.88889Z" fill="url(#paint0_linear)"/>
<defs>
<linearGradient id="paint0_linear" x1="16" y1="3.55556" x2="16" y2="28.4444" gradientUnits="userSpaceOnUse">
<stop stop-color="#F4ABAA"/>
<stop offset="1" stop-color="#C1436D"/>
</linearGradient>
</defs>
</svg>
