<svg width="11" height="16" viewBox="0 0 11 16" fill="none" xmlns="http://www.w3.org/2000/svg">
<path d="M5.09658 0.724405C3.63996 0.349385 2.22619 0.461891 0.976642 0.934416C0.462543 1.12943 0.326878 1.84946 0.755294 2.21698C1.57106 2.91727 2.22818 3.79955 2.67896 4.79978C3.12975 5.80002 3.3629 6.89313 3.36149 7.99979C3.3629 9.10645 3.12975 10.1996 2.67896 11.1998C2.22818 12.2 1.57106 13.0823 0.755294 13.7826C0.334018 14.1501 0.455402 14.8701 0.976642 15.0577C1.71923 15.3427 2.52608 15.5002 3.36149 15.5002C7.68136 15.5002 11.1087 11.465 10.4089 6.79972C9.97339 3.85957 7.84558 1.42944 5.09658 0.724405V0.724405Z" fill="white"/>
</svg>
