<svg width="15" height="15" viewBox="0 0 15 15" fill="none" xmlns="http://www.w3.org/2000/svg">
<path d="M7.5 0.000183105C3.3645 0.000183105 0 3.36468 0 7.50018C0 11.6357 3.3645 15.0002 7.5 15.0002C11.6355 15.0002 15 11.6357 15 7.50018C15 3.36468 11.6355 0.000183105 7.5 0.000183105ZM8.25 12.0002H6.75V10.5002H8.25V12.0002ZM8.982 8.33643C8.835 8.45493 8.69325 8.56818 8.58075 8.68068C8.27475 8.98593 8.25075 9.26343 8.25 9.27543V9.37518H6.75V9.24993C6.75 9.16143 6.77175 8.36718 7.5195 7.61943C7.66575 7.47318 7.84725 7.32468 8.03775 7.17018C8.58825 6.72393 8.94975 6.39843 8.94975 5.94993C8.94104 5.57105 8.78438 5.21062 8.5133 4.94577C8.24222 4.68092 7.87824 4.53269 7.49926 4.53279C7.12027 4.53288 6.75638 4.68131 6.48543 4.9463C6.21449 5.21129 6.05802 5.57179 6.0495 5.95068H4.5495C4.5495 4.32393 5.87325 3.00018 7.5 3.00018C9.12675 3.00018 10.4505 4.32393 10.4505 5.95068C10.4505 7.14843 9.56625 7.86318 8.982 8.33643Z" fill="white"/>
</svg>
