<svg width="12" height="16" viewBox="0 0 12 16" fill="none" xmlns="http://www.w3.org/2000/svg">
<path d="M0.75 15.5002C0.551088 15.5002 0.360322 15.4212 0.21967 15.2805C0.0790178 15.1399 0 14.9491 0 14.7502V1.25018C0 1.05127 0.0790178 0.860505 0.21967 0.719853C0.360322 0.579201 0.551088 0.500183 0.75 0.500183H11.25C11.4489 0.500183 11.6397 0.579201 11.7803 0.719853C11.921 0.860505 12 1.05127 12 1.25018V14.7502C12 14.9491 11.921 15.1399 11.7803 15.2805C11.6397 15.4212 11.4489 15.5002 11.25 15.5002H0.75ZM8.25 11.0002L12 8.00018L8.25 5.00018V7.25018H3.75V8.75018H8.25V11.0002Z" fill="white"/>
</svg>
