<svg width="16" height="16" viewBox="0 0 16 16" fill="none" xmlns="http://www.w3.org/2000/svg">
<path d="M8.80878 0.500001C9.02928 0.500001 9.22653 0.637251 9.30078 0.842751L9.83028 2.3105C10.02 2.35775 10.1828 2.405 10.3208 2.4545C10.4715 2.5085 10.6658 2.59025 10.9058 2.702L12.1388 2.0495C12.2394 1.99618 12.3546 1.97693 12.4671 1.99465C12.5797 2.01236 12.6834 2.06608 12.7628 2.14775L13.8473 3.269C13.9913 3.41825 14.0318 3.6365 13.9508 3.827L13.3725 5.18225C13.4685 5.3585 13.545 5.50925 13.6035 5.63525C13.6665 5.7725 13.7445 5.9615 13.8375 6.20525L15.1853 6.78275C15.3878 6.869 15.513 7.0715 15.4995 7.28825L15.4005 8.8445C15.3938 8.9456 15.3575 9.0425 15.2961 9.12316C15.2348 9.20382 15.1511 9.2647 15.0555 9.29825L13.779 9.752C13.7423 9.92825 13.704 10.079 13.6635 10.2065C13.5982 10.4034 13.5236 10.5971 13.44 10.787L14.0813 12.2045C14.1265 12.3041 14.1387 12.4156 14.116 12.5226C14.0934 12.6296 14.037 12.7266 13.9553 12.7993L12.7358 13.8883C12.6555 13.9597 12.5552 14.0048 12.4485 14.0177C12.3418 14.0306 12.2338 14.0105 12.1388 13.9603L10.8818 13.2943C10.6851 13.3984 10.4822 13.4903 10.2743 13.5695L9.72528 13.775L9.23778 15.125C9.20165 15.2239 9.13648 15.3095 9.05082 15.3707C8.96516 15.4318 8.86301 15.4657 8.75778 15.4678L7.33278 15.5C7.22475 15.5028 7.1185 15.4721 7.02864 15.4121C6.93879 15.352 6.86975 15.2656 6.83103 15.1647L6.25653 13.6445C6.06051 13.5775 5.86643 13.505 5.67453 13.427C5.51756 13.3591 5.36297 13.2858 5.21103 13.2073L3.78603 13.8162C3.69213 13.8563 3.58862 13.8682 3.48808 13.8505C3.38755 13.8328 3.29433 13.7862 3.21978 13.7165L2.16528 12.7273C2.08677 12.6539 2.0333 12.5578 2.01244 12.4524C1.99158 12.347 2.00438 12.2377 2.04903 12.14L2.66178 10.805C2.58028 10.6469 2.50473 10.4858 2.43528 10.322C2.3542 10.1215 2.27917 9.91871 2.21028 9.71375L0.867776 9.305C0.758651 9.27202 0.663471 9.20393 0.597018 9.1113C0.530564 9.01867 0.496557 8.90669 0.500276 8.79275L0.552776 7.352C0.556513 7.258 0.585878 7.1668 0.637697 7.08828C0.689515 7.00976 0.761814 6.9469 0.846776 6.9065L2.25528 6.23C2.32053 5.99075 2.37753 5.80475 2.42778 5.669C2.49853 5.48769 2.57711 5.30952 2.66328 5.135L2.05278 3.845C2.00644 3.74704 1.99238 3.63691 2.01259 3.53044C2.03281 3.42398 2.08626 3.32667 2.16528 3.2525L3.21828 2.258C3.29209 2.18838 3.38445 2.14157 3.48425 2.12321C3.58404 2.10485 3.68701 2.11572 3.78078 2.1545L5.20428 2.7425C5.36178 2.6375 5.50428 2.55275 5.63328 2.4845C5.78703 2.40275 5.99253 2.31725 6.25128 2.225L6.74628 0.844251C6.78287 0.743203 6.84976 0.655912 6.93782 0.5943C7.02588 0.532687 7.1308 0.499755 7.23828 0.500001H8.80878ZM8.01828 5.76425C6.76803 5.76425 5.75478 6.7655 5.75478 8.0015C5.75478 9.2375 6.76803 10.2395 8.01828 10.2395C9.26778 10.2395 10.281 9.2375 10.281 8.0015C10.281 6.7655 9.26853 5.76425 8.01828 5.76425Z" fill="white"/>
</svg>
