<svg width="38" height="39" viewBox="0 0 38 39" fill="none" xmlns="http://www.w3.org/2000/svg">
<g clip-path="url(#clip0_1:9)">
<rect y="0.5" width="38" height="38" rx="19" fill="url(#paint0_linear_1:9)"/>
<path d="M16.5884 30.39C15.1684 30.39 13.9984 29.9 13.0784 28.92C12.1584 27.94 11.6984 26.55 11.6984 24.75C11.6984 23.31 11.9984 22.18 12.5984 21.36C13.2184 20.54 14.0784 19.96 15.1784 19.62C16.2984 19.26 17.6084 19.08 19.1084 19.08H21.8684C21.8684 18.14 21.8284 17.39 21.7484 16.83C21.6884 16.25 21.5684 15.82 21.3884 15.54C21.2284 15.32 20.9984 15.17 20.6984 15.09C20.4184 14.99 20.0084 14.94 19.4684 14.94C18.7284 14.94 17.9784 15.01 17.2184 15.15C16.4584 15.27 15.7584 15.42 15.1184 15.6C14.4984 15.78 13.9884 15.94 13.5884 16.08C13.2084 16.22 13.0184 16.29 13.0184 16.29L12.1184 13.71C12.1184 13.71 12.3084 13.63 12.6884 13.47C13.0884 13.31 13.6184 13.12 14.2784 12.9C14.9584 12.68 15.7184 12.49 16.5584 12.33C17.4184 12.15 18.3084 12.06 19.2284 12.06C20.7284 12.06 21.9184 12.33 22.7984 12.87C23.6984 13.41 24.3384 14.17 24.7184 15.15C25.1184 16.11 25.3184 17.24 25.3184 18.54V30H23.0984L22.6484 28.11H22.4684C22.3484 28.19 22.1084 28.35 21.7484 28.59C21.3884 28.83 20.9384 29.09 20.3984 29.37C19.8784 29.65 19.2884 29.89 18.6284 30.09C17.9684 30.29 17.2884 30.39 16.5884 30.39ZM17.4284 27.48C18.0684 27.48 18.6984 27.38 19.3184 27.18C19.9584 26.98 20.4984 26.77 20.9384 26.55C21.3984 26.31 21.7084 26.14 21.8684 26.04V21.9C21.7284 21.88 21.4084 21.85 20.9084 21.81C20.4084 21.75 19.7484 21.72 18.9284 21.72C17.3284 21.72 16.3284 21.89 15.9284 22.23C15.4884 22.61 15.2684 23.42 15.2684 24.66C15.2684 25.66 15.4284 26.38 15.7484 26.82C16.0884 27.26 16.6484 27.48 17.4284 27.48Z" fill="white"/>
</g>
<defs>
<linearGradient id="paint0_linear_1:9" x1="19" y1="0.5" x2="19" y2="38.5" gradientUnits="userSpaceOnUse">
<stop stop-color="#F4ABAA"/>
<stop offset="1" stop-color="#C1436D"/>
</linearGradient>
<clipPath id="clip0_1:9">
<rect y="0.5" width="38" height="38" rx="19" fill="white"/>
</clipPath>
</defs>
</svg>
