<svg width="25" height="25" viewBox="0 0 25 25" fill="none" xmlns="http://www.w3.org/2000/svg">
<path d="M5.74663 20C5.3819 20.0006 5.01871 19.9527 4.66663 19.8575C3.60981 19.5561 2.7132 18.8525 2.16918 17.8977C1.62515 16.9428 1.47704 15.8128 1.75663 14.75L3.50413 8.12C3.64022 7.58343 3.88216 7.07946 4.21574 6.6377C4.54932 6.19593 4.96781 5.82528 5.44663 5.5475C5.91285 5.27746 6.42802 5.10262 6.96229 5.0331C7.49657 4.96358 8.03933 5.00076 8.55913 5.1425C9.11169 5.29594 9.62634 5.5625 10.0705 5.92529C10.5146 6.28808 10.8785 6.73918 11.1391 7.25H13.0891C13.3486 6.73836 13.7122 6.2866 14.1565 5.92367C14.6008 5.56075 15.116 5.29467 15.6691 5.1425C16.1889 5.00076 16.7317 4.96358 17.266 5.0331C17.8002 5.10262 18.3154 5.27746 18.7816 5.5475C19.2581 5.82456 19.6751 6.19319 20.0085 6.63212C20.3419 7.07106 20.5851 7.57164 20.7241 8.105L22.4716 14.75C22.7554 15.8159 22.6085 16.9506 22.0626 17.9091C21.5167 18.8676 20.6157 19.5728 19.5541 19.8725C19.0343 20.0142 18.4916 20.0514 17.9573 19.9819C17.423 19.9124 16.9079 19.7375 16.4416 19.4675C15.9643 19.1914 15.5468 18.8231 15.2133 18.384C14.8798 17.9449 14.637 17.4439 14.4991 16.91L14.3641 16.25H9.86413L9.69163 16.895C9.55374 17.4289 9.31096 17.9299 8.97747 18.369C8.64397 18.8081 8.22641 19.1764 7.74913 19.4525C7.13974 19.804 6.45008 19.9925 5.74663 20ZM7.48663 6.5C7.03403 6.50154 6.58957 6.62041 6.19663 6.845C5.58077 7.20634 5.13312 7.79691 4.95163 8.4875L3.20413 15.1175C3.02127 15.8006 3.11367 16.5281 3.46147 17.1438C3.80927 17.7594 4.38471 18.2141 5.06413 18.41C5.39226 18.4995 5.73488 18.5231 6.07217 18.4793C6.40945 18.4355 6.73471 18.3253 7.02913 18.155C7.33566 17.978 7.6037 17.7416 7.81751 17.4595C8.03132 17.1774 8.18657 16.8554 8.27413 16.5125L8.73913 14.75H15.4891L15.9466 16.5125C16.0357 16.8548 16.1916 17.1761 16.4053 17.458C16.6189 17.7398 16.8862 17.9767 17.1916 18.155C17.4875 18.3251 17.814 18.4352 18.1525 18.479C18.491 18.5227 18.8347 18.4993 19.1641 18.41C19.8444 18.2159 20.4205 17.7612 20.7674 17.1447C21.1143 16.5282 21.2038 15.7997 21.0166 15.1175L19.2691 8.4875C19.1821 8.14535 19.0278 7.82393 18.8154 7.54195C18.6029 7.25997 18.3365 7.02306 18.0316 6.845C17.7358 6.67487 17.4092 6.56478 17.0708 6.52102C16.7323 6.47727 16.3885 6.50071 16.0591 6.59C15.6518 6.70612 15.278 6.91776 14.9688 7.20734C14.6597 7.49692 14.4241 7.85609 14.2816 8.255L14.1016 8.75H10.1266L9.94663 8.255C9.80289 7.85555 9.56598 7.49614 9.25554 7.20657C8.9451 6.91701 8.5701 6.70564 8.16163 6.59C7.94152 6.53065 7.71459 6.50039 7.48663 6.5Z" fill="#C1436D"/>
<path d="M7.61414 12.5C7.31746 12.5 7.02746 12.412 6.78078 12.2472C6.53411 12.0824 6.34185 11.8481 6.22832 11.574C6.11479 11.2999 6.08508 10.9983 6.14296 10.7074C6.20084 10.4164 6.3437 10.1491 6.55348 9.93934C6.76326 9.72956 7.03053 9.5867 7.3215 9.52882C7.61247 9.47094 7.91407 9.50065 8.18816 9.61418C8.46225 9.72771 8.69652 9.91997 8.86134 10.1666C9.02616 10.4133 9.11414 10.7033 9.11414 11C9.11414 11.3978 8.9561 11.7794 8.6748 12.0607C8.39349 12.342 8.01196 12.5 7.61414 12.5Z" fill="#C1436D"/>
<path d="M16.6141 10.25C17.0283 10.25 17.3641 9.91421 17.3641 9.5C17.3641 9.08579 17.0283 8.75 16.6141 8.75C16.1999 8.75 15.8641 9.08579 15.8641 9.5C15.8641 9.91421 16.1999 10.25 16.6141 10.25Z" fill="#C1436D"/>
<path d="M16.6141 13.25C17.0283 13.25 17.3641 12.9142 17.3641 12.5C17.3641 12.0858 17.0283 11.75 16.6141 11.75C16.1999 11.75 15.8641 12.0858 15.8641 12.5C15.8641 12.9142 16.1999 13.25 16.6141 13.25Z" fill="#C1436D"/>
<path d="M15.1141 11.75C15.5283 11.75 15.8641 11.4142 15.8641 11C15.8641 10.5858 15.5283 10.25 15.1141 10.25C14.6999 10.25 14.3641 10.5858 14.3641 11C14.3641 11.4142 14.6999 11.75 15.1141 11.75Z" fill="#C1436D"/>
<path d="M18.1141 11.75C18.5283 11.75 18.8641 11.4142 18.8641 11C18.8641 10.5858 18.5283 10.25 18.1141 10.25C17.6999 10.25 17.3641 10.5858 17.3641 11C17.3641 11.4142 17.6999 11.75 18.1141 11.75Z" fill="#C1436D"/>
</svg>
