<svg width="25" height="23" viewBox="0 0 25 23" fill="none" xmlns="http://www.w3.org/2000/svg">
<path d="M15.674 17.314L15.194 13.471C15.1259 12.9267 14.8614 12.4259 14.4501 12.063C14.0388 11.7 13.509 11.4998 12.9605 11.5H11.3075C10.7591 11.5002 10.2298 11.7005 9.81877 12.0635C9.40777 12.4264 9.14345 12.9269 9.07546 13.471L8.59471 17.314C8.56832 17.5251 8.58716 17.7395 8.64996 17.9428C8.71277 18.1461 8.81811 18.3337 8.95899 18.4931C9.09986 18.6526 9.27305 18.7803 9.46705 18.8676C9.66106 18.955 9.87143 19.0002 10.0842 19H14.1852C14.3979 19 14.6082 18.9549 14.8021 18.8674C14.996 18.78 15.1691 18.6523 15.3099 18.4928C15.4507 18.3334 15.556 18.1458 15.6188 17.9426C15.6815 17.7393 15.7003 17.5251 15.674 17.314V17.314Z" stroke="#E5E5E5" stroke-width="2" stroke-linecap="round" stroke-linejoin="round"/>
<path d="M12.1347 8.5C13.3773 8.5 14.3847 7.49264 14.3847 6.25C14.3847 5.00736 13.3773 4 12.1347 4C10.8921 4 9.8847 5.00736 9.8847 6.25C9.8847 7.49264 10.8921 8.5 12.1347 8.5Z" stroke="#E5E5E5" stroke-width="2"/>
<path d="M6.1347 10.75C6.96313 10.75 7.6347 10.0784 7.6347 9.25C7.6347 8.42157 6.96313 7.75 6.1347 7.75C5.30628 7.75 4.6347 8.42157 4.6347 9.25C4.6347 10.0784 5.30628 10.75 6.1347 10.75Z" stroke="#E5E5E5" stroke-width="2"/>
<path d="M18.1347 10.75C18.9631 10.75 19.6347 10.0784 19.6347 9.25C19.6347 8.42157 18.9631 7.75 18.1347 7.75C17.3063 7.75 16.6347 8.42157 16.6347 9.25C16.6347 10.0784 17.3063 10.75 18.1347 10.75Z" stroke="#E5E5E5" stroke-width="2"/>
<path d="M6.13471 13H5.90521C5.55013 13 5.20655 13.1259 4.93559 13.3554C4.66463 13.5848 4.48387 13.903 4.42546 14.2532L4.17571 15.7532C4.13987 15.9682 4.15127 16.1883 4.20913 16.3984C4.267 16.6084 4.36992 16.8033 4.51075 16.9696C4.65159 17.1358 4.82694 17.2694 5.02463 17.361C5.22231 17.4526 5.43758 17.5 5.65546 17.5H8.38471" stroke="#E5E5E5" stroke-width="2" stroke-linecap="round" stroke-linejoin="round"/>
<path d="M18.1347 13H18.3642C18.7193 13 19.0629 13.1259 19.3338 13.3554C19.6048 13.5848 19.7855 13.903 19.844 14.2532L20.0937 15.7532C20.1295 15.9682 20.1181 16.1883 20.0603 16.3984C20.0024 16.6084 19.8995 16.8033 19.7587 16.9696C19.6178 17.1358 19.4425 17.2694 19.2448 17.361C19.0471 17.4526 18.8318 17.5 18.614 17.5H15.8847" stroke="#E5E5E5" stroke-width="2" stroke-linecap="round" stroke-linejoin="round"/>
<rect x="0.655273" y="0.5" width="22.9589" height="22" rx="11" stroke="#E5E5E5"/>
</svg>
