<svg width="25" height="25" viewBox="0 0 25 25" fill="none" xmlns="http://www.w3.org/2000/svg">
<path d="M22.4742 12.3359L12.8203 2.68898C12.7508 2.61933 12.6682 2.56407 12.5774 2.52637C12.4865 2.48867 12.389 2.46927 12.2906 2.46927C12.1922 2.46927 12.0948 2.48867 12.0039 2.52637C11.913 2.56407 11.8305 2.61933 11.7609 2.68898L2.10704 12.3359C1.82579 12.6171 1.66641 12.9991 1.66641 13.3976C1.66641 14.2249 2.33907 14.8976 3.16641 14.8976H4.1836V21.7812C4.1836 22.196 4.51876 22.5312 4.9336 22.5312H10.7906V17.2812H13.4156V22.5312H19.6477C20.0625 22.5312 20.3977 22.196 20.3977 21.7812V14.8976H21.4148C21.8133 14.8976 22.1953 14.7405 22.4766 14.4569C23.0602 13.871 23.0602 12.9218 22.4742 12.3359Z" fill="#C1436D"/>
</svg>
