<svg width="19" height="19" viewBox="0 0 19 19" fill="none" xmlns="http://www.w3.org/2000/svg">
<path fill-rule="evenodd" clip-rule="evenodd" d="M1.69948 0C1.5026 0 1.32708 0.136458 1.25938 0.341667L0.0572917 3.99323C0.0193363 4.10871 -2.77438e-06 4.22949 2.9853e-10 4.35104V5.80365C2.9853e-10 6.625 0.599479 7.29167 1.33906 7.29167C2.07865 7.29167 2.67865 6.625 2.67865 5.80365C2.67865 6.62552 3.27812 7.29167 4.01771 7.29167C4.75729 7.29167 5.35729 6.625 5.35729 5.80365C5.35729 6.62552 5.95677 7.29167 6.69635 7.29167C7.43594 7.29167 8.0349 6.62604 8.03594 5.80469C8.03594 6.62604 8.63542 7.29167 9.375 7.29167C10.1146 7.29167 10.7141 6.625 10.7141 5.80365C10.7141 6.62552 11.3141 7.29167 12.0536 7.29167C12.7932 7.29167 13.3922 6.62604 13.3927 5.80469C13.3932 6.62604 13.9927 7.29167 14.7323 7.29167C15.4719 7.29167 16.0714 6.625 16.0714 5.80365C16.0714 6.62552 16.6708 7.29167 17.4109 7.29167C18.1505 7.29167 18.75 6.625 18.75 5.80365V4.35104C18.75 4.22949 18.7307 4.10871 18.6927 3.99323L17.4906 0.342188C17.4229 0.136458 17.2474 0 17.0505 0H1.69948Z" fill="white"/>
<path fill-rule="evenodd" clip-rule="evenodd" d="M2.08337 7.9323V11.9792H0.781291C0.712224 11.9792 0.645986 12.0066 0.597148 12.0554C0.548311 12.1043 0.520874 12.1705 0.520874 12.2396V12.7604C0.520874 12.8295 0.548311 12.8957 0.597148 12.9446C0.645986 12.9934 0.712224 13.0208 0.781291 13.0208H17.9688C18.0379 13.0208 18.1041 12.9934 18.1529 12.9446C18.2018 12.8957 18.2292 12.8295 18.2292 12.7604V12.2396C18.2292 12.1705 18.2018 12.1043 18.1529 12.0554C18.1041 12.0066 18.0379 11.9792 17.9688 11.9792H16.6667V7.9323C16.4487 7.84541 16.2473 7.72154 16.0714 7.56615C15.9364 7.68524 15.7863 7.7861 15.625 7.86615V11.9792H3.12504V7.86615C2.96378 7.7861 2.81371 7.68524 2.67869 7.56615C2.50369 7.7198 2.30369 7.8448 2.08337 7.9323ZM15.625 6.91303C15.6693 6.86875 15.711 6.82136 15.75 6.77084H15.625V6.91303ZM16.3927 6.77084C16.4715 6.87286 16.5636 6.96378 16.6667 7.04115V6.77084H16.3927ZM2.08337 7.04115C2.18696 6.96439 2.27919 6.87339 2.35733 6.77084H2.08337V7.04115ZM3.00004 6.77084H3.12504V6.91303C3.0803 6.86842 3.03854 6.82092 3.00004 6.77084ZM1.30212 14.0625C1.23306 14.0625 1.16682 14.0899 1.11798 14.1388C1.06914 14.1876 1.04171 14.2539 1.04171 14.3229V18.2292C1.04171 18.3673 1.09658 18.4998 1.19426 18.5975C1.29193 18.6951 1.42441 18.75 1.56254 18.75H17.1875C17.3257 18.75 17.4582 18.6951 17.5558 18.5975C17.6535 18.4998 17.7084 18.3673 17.7084 18.2292V14.3229C17.7084 14.2539 17.6809 14.1876 17.6321 14.1388C17.5833 14.0899 17.517 14.0625 17.448 14.0625H1.30212Z" fill="white"/>
<path d="M5.98954 10.4167H4.42704C4.28322 10.4167 4.16663 10.5333 4.16663 10.6771V11.7187C4.16663 11.8626 4.28322 11.9792 4.42704 11.9792H5.98954C6.13337 11.9792 6.24996 11.8626 6.24996 11.7187V10.6771C6.24996 10.5333 6.13337 10.4167 5.98954 10.4167Z" fill="white"/>
<path d="M7.03129 10.9375H5.46879C5.32497 10.9375 5.20837 11.0541 5.20837 11.1979V11.7188C5.20837 11.8626 5.32497 11.9792 5.46879 11.9792H7.03129C7.17511 11.9792 7.29171 11.8626 7.29171 11.7188V11.1979C7.29171 11.0541 7.17511 10.9375 7.03129 10.9375Z" fill="white"/>
<path d="M8.59375 11.9792C9.02522 11.9792 9.375 11.6294 9.375 11.1979C9.375 10.7664 9.02522 10.4167 8.59375 10.4167C8.16228 10.4167 7.8125 10.7664 7.8125 11.1979C7.8125 11.6294 8.16228 11.9792 8.59375 11.9792Z" fill="white"/>
</svg>
