<svg width="25" height="25" viewBox="0 0 25 25" fill="none" xmlns="http://www.w3.org/2000/svg">
<path d="M12.4048 2.5C6.89079 2.5 2.40479 6.089 2.40479 10.5C2.40479 13.408 4.30279 16.015 7.40479 17.434V22.5L12.7448 18.495C18.1018 18.352 22.4048 14.82 22.4048 10.5C22.4048 6.089 17.9188 2.5 12.4048 2.5ZM12.4048 16.5H12.0718L9.40479 18.5V16.083L8.76379 15.836C6.07479 14.801 4.40479 12.756 4.40479 10.5C4.40479 7.191 7.99379 4.5 12.4048 4.5C16.8158 4.5 20.4048 7.191 20.4048 10.5C20.4048 13.809 16.8158 16.5 12.4048 16.5Z" fill="#C1436D"/>
<path d="M7.40479 7.5H17.4048V9.5H7.40479V7.5ZM7.40479 11.5H14.4048V13.5H7.40479V11.5Z" fill="#C1436D"/>
</svg>
