<svg width="21" height="21" viewBox="0 0 21 21" fill="none" xmlns="http://www.w3.org/2000/svg">
<path d="M18.6548 16.1278L18.4659 15.9611C17.93 15.4837 17.461 14.9361 17.0715 14.3333C16.646 13.5014 16.391 12.5929 16.3215 11.6611V8.91667C16.3251 7.45312 15.7943 6.0386 14.8285 4.93888C13.8628 3.83915 12.5288 3.12993 11.077 2.94445V2.22778C11.077 2.03108 10.9989 1.84243 10.8598 1.70334C10.7207 1.56425 10.5321 1.48611 10.3354 1.48611C10.1387 1.48611 9.95001 1.56425 9.81092 1.70334C9.67183 1.84243 9.59369 2.03108 9.59369 2.22778V2.95556C8.15494 3.15441 6.837 3.86792 5.88398 4.96395C4.93096 6.05998 4.40743 7.46425 4.41035 8.91667V11.6611C4.34077 12.5929 4.08579 13.5014 3.66035 14.3333C3.27751 14.9346 2.81602 15.4821 2.28813 15.9611L2.09924 16.1278V17.6944H18.6548V16.1278Z" fill="#C1436D"/>
<path d="M8.91589 18.2778C8.96461 18.6299 9.13911 18.9526 9.40716 19.1861C9.67522 19.4196 10.0187 19.5482 10.3742 19.5482C10.7297 19.5482 11.0732 19.4196 11.3413 19.1861C11.6093 18.9526 11.7838 18.6299 11.8326 18.2778H8.91589Z" fill="#C1436D"/>
</svg>
