<svg width="25" height="25" viewBox="0 0 25 25" fill="none" xmlns="http://www.w3.org/2000/svg">
<path d="M21.5686 7.16666H2.74194C2.40954 7.16666 2.09074 7.2987 1.8557 7.53375C1.62065 7.76879 1.48861 8.08759 1.48861 8.41999V20.58C1.48861 20.9124 1.62065 21.2312 1.8557 21.4662C2.09074 21.7013 2.40954 21.8333 2.74194 21.8333H21.5686C21.901 21.8333 22.2198 21.7013 22.4548 21.4662C22.6899 21.2312 22.8219 20.9124 22.8219 20.58V8.41999C22.8219 8.08759 22.6899 7.76879 22.4548 7.53375C22.2198 7.2987 21.901 7.16666 21.5686 7.16666ZM21.4886 20.5H2.82194V8.49999H21.4886V20.5Z" fill="#C1436D"/>
<path d="M20.2486 2.50001C20.2486 2.3232 20.1784 2.15363 20.0533 2.02861C19.9283 1.90358 19.7588 1.83334 19.5819 1.83334H4.91527C4.73846 1.83334 4.56889 1.90358 4.44387 2.02861C4.31884 2.15363 4.24861 2.3232 4.24861 2.50001V3.16668H20.2486V2.50001Z" fill="#C1436D"/>
<path d="M21.5686 5.16667C21.5686 4.98986 21.4984 4.82029 21.3733 4.69526C21.2483 4.57024 21.0787 4.5 20.9019 4.5H3.56861C3.39179 4.5 3.22223 4.57024 3.0972 4.69526C2.97218 4.82029 2.90194 4.98986 2.90194 5.16667V5.83333H21.5686V5.16667Z" fill="#C1436D"/>
<path d="M8.70194 18.36C8.8867 18.4798 9.10174 18.5446 9.32194 18.5467C9.48063 18.5463 9.63742 18.5122 9.78194 18.4467L16.2953 15.54C16.4966 15.4525 16.668 15.3081 16.7884 15.1246C16.9088 14.941 16.9729 14.7262 16.9729 14.5067C16.9729 14.2872 16.9088 14.0724 16.7884 13.8888C16.668 13.7053 16.4966 13.5609 16.2953 13.4734L9.78194 10.5667C9.60958 10.4902 9.42084 10.4578 9.23284 10.4727C9.04483 10.4875 8.86349 10.549 8.70526 10.6516C8.54703 10.7542 8.41691 10.8947 8.3267 11.0603C8.23648 11.2259 8.18901 11.4114 8.18861 11.6V17.4134C8.18894 17.6014 8.23604 17.7863 8.32565 17.9516C8.41526 18.1168 8.54457 18.2572 8.70194 18.36ZM9.12194 11.6C9.12173 11.5665 9.13022 11.5336 9.14658 11.5044C9.16295 11.4752 9.18661 11.4507 9.21527 11.4334C9.25017 11.4237 9.28704 11.4237 9.32194 11.4334C9.34827 11.4274 9.37561 11.4274 9.40194 11.4334L15.9153 14.3334C15.952 14.3484 15.9833 14.3744 16.0047 14.4078C16.0262 14.4412 16.0369 14.4804 16.0353 14.52C16.0364 14.5588 16.0255 14.5969 16.004 14.6292C15.9825 14.6614 15.9515 14.6862 15.9153 14.7L9.40194 17.6067C9.37356 17.6231 9.34137 17.6317 9.30861 17.6317C9.27584 17.6317 9.24365 17.6231 9.21527 17.6067C9.18745 17.5885 9.16444 17.5638 9.14819 17.5348C9.13195 17.5058 9.12294 17.4733 9.12194 17.44V11.6Z" fill="#C1436D"/>
</svg>
