<svg width="17" height="17" viewBox="0 0 17 17" fill="none" xmlns="http://www.w3.org/2000/svg">
<g clip-path="url(#clip0_302:15)">
<rect y="0.88205" width="16" height="16" rx="8" transform="rotate(-1.36827 0 0.88205)" fill="#C1436D"/>
<path d="M7.17544 13.3963C6.51296 13.4121 5.96166 13.1965 5.52153 12.7496C5.0814 12.3026 4.8513 11.6593 4.83124 10.8195C4.8152 10.1477 4.94256 9.61717 5.21335 9.22793C5.49346 8.83846 5.88822 8.55829 6.39761 8.38741C6.91612 8.20698 7.52527 8.10841 8.22507 8.09169L9.51271 8.06094C9.50223 7.62239 9.47521 7.27294 9.43165 7.01257C9.3972 6.74265 9.33642 6.54338 9.24932 6.41476C9.17223 6.3139 9.06325 6.24648 8.9224 6.2125C8.79066 6.16897 8.59882 6.15021 8.34689 6.15623C8.00166 6.16448 7.65254 6.20549 7.29953 6.27927C6.9463 6.34373 6.6214 6.42151 6.32483 6.51262C6.03758 6.6035 5.80143 6.68383 5.61638 6.7536C5.44066 6.82315 5.35279 6.85793 5.35279 6.85793L4.90416 5.6643C4.90416 5.6643 4.99191 5.62486 5.16741 5.54598C5.35224 5.46688 5.59739 5.37233 5.90285 5.26234C6.21764 5.15212 6.57009 5.05501 6.9602 4.971C7.35941 4.87745 7.77362 4.82554 8.20283 4.81529C8.90263 4.79857 9.46082 4.91128 9.87738 5.1534C10.3033 5.3953 10.6103 5.74273 10.7985 6.1957C10.9958 6.63911 11.1017 7.16407 11.1162 7.77056L11.2439 13.117L10.2082 13.1418L9.97723 12.265L9.89325 12.267C9.83816 12.3057 9.72797 12.383 9.5627 12.499C9.39742 12.615 9.19038 12.7413 8.94157 12.8779C8.70209 13.0144 8.42951 13.1329 8.12383 13.2336C7.81814 13.3342 7.50201 13.3885 7.17544 13.3963ZM7.5349 12.0293C7.83348 12.0222 8.12629 11.9685 8.41331 11.8683C8.70966 11.7678 8.95925 11.6638 9.16207 11.5563C9.374 11.4392 9.51673 11.3564 9.59026 11.308L9.54413 9.37656C9.47859 9.36879 9.32897 9.35836 9.09526 9.34527C8.86132 9.32285 8.55307 9.31621 8.17052 9.32535C7.42406 9.34318 6.95942 9.43363 6.7766 9.59671C6.57556 9.77889 6.48195 10.1592 6.49577 10.7377C6.50691 11.2043 6.58958 11.5384 6.74377 11.7401C6.9073 11.9416 7.17101 12.038 7.5349 12.0293Z" fill="white"/>
</g>
<defs>
<clipPath id="clip0_302:15">
<rect y="0.88205" width="16" height="16" rx="8" transform="rotate(-1.36827 0 0.88205)" fill="white"/>
</clipPath>
</defs>
</svg>
