<svg width="16" height="17" viewBox="0 0 16 17" fill="none" xmlns="http://www.w3.org/2000/svg">
<g clip-path="url(#clip0_244:12)">
<path d="M3.5 0.45575C3.63261 0.45575 3.75979 0.508428 3.85355 0.602196C3.94732 0.695964 4 0.823141 4 0.95575V1.45575H12V0.95575C12 0.823141 12.0527 0.695964 12.1464 0.602196C12.2402 0.508428 12.3674 0.45575 12.5 0.45575C12.6326 0.45575 12.7598 0.508428 12.8536 0.602196C12.9473 0.695964 13 0.823141 13 0.95575V1.45575H14C14.5304 1.45575 15.0391 1.66646 15.4142 2.04154C15.7893 2.41661 16 2.92532 16 3.45575V14.4557C16 14.9862 15.7893 15.4949 15.4142 15.87C15.0391 16.245 14.5304 16.4557 14 16.4557H2C1.46957 16.4557 0.960859 16.245 0.585786 15.87C0.210714 15.4949 0 14.9862 0 14.4557V3.45575C0 2.92532 0.210714 2.41661 0.585786 2.04154C0.960859 1.66646 1.46957 1.45575 2 1.45575H3V0.95575C3 0.823141 3.05268 0.695964 3.14645 0.602196C3.24021 0.508428 3.36739 0.45575 3.5 0.45575V0.45575ZM13.454 3.45575H2.545C2.245 3.45575 2 3.67975 2 3.95575V4.95575C2 5.23175 2.244 5.45575 2.545 5.45575H13.455C13.755 5.45575 14 5.23175 14 4.95575V3.95575C14 3.67975 13.756 3.45575 13.454 3.45575ZM11.5 7.45575C11.3674 7.45575 11.2402 7.50843 11.1464 7.6022C11.0527 7.69596 11 7.82314 11 7.95575V8.95575C11 9.08836 11.0527 9.21554 11.1464 9.3093C11.2402 9.40307 11.3674 9.45575 11.5 9.45575H12.5C12.6326 9.45575 12.7598 9.40307 12.8536 9.3093C12.9473 9.21554 13 9.08836 13 8.95575V7.95575C13 7.82314 12.9473 7.69596 12.8536 7.6022C12.7598 7.50843 12.6326 7.45575 12.5 7.45575H11.5Z" fill="white"/>
</g>
<defs>
<clipPath id="clip0_244:12">
<rect width="16" height="16" fill="white" transform="translate(0 0.45575)"/>
</clipPath>
</defs>
</svg>
