<svg width="18" height="18" viewBox="0 0 18 18" fill="none" xmlns="http://www.w3.org/2000/svg">
<path d="M12.5187 14.7697L12.0387 10.9267C11.9707 10.3824 11.7061 9.88169 11.2948 9.51871C10.8835 9.15574 10.3537 8.95554 9.80518 8.95575H8.15218C7.60387 8.9559 7.07449 9.15627 6.6635 9.51921C6.2525 9.88215 5.98817 10.3827 5.92018 10.9267L5.43943 14.7697C5.41305 14.9809 5.43189 15.1952 5.49469 15.3985C5.5575 15.6018 5.66284 15.7894 5.80371 15.9489C5.94459 16.1083 6.11778 16.236 6.31178 16.3234C6.50578 16.4108 6.71616 16.4559 6.92893 16.4557H11.0299C11.2426 16.4558 11.4529 16.4106 11.6468 16.3232C11.8408 16.2357 12.0139 16.108 12.1547 15.9486C12.2954 15.7891 12.4007 15.6016 12.4635 15.3983C12.5262 15.1951 12.5451 14.9808 12.5187 14.7697V14.7697Z" stroke="white" stroke-width="2" stroke-linecap="round" stroke-linejoin="round"/>
<path d="M8.97949 5.95575C10.2221 5.95575 11.2295 4.94839 11.2295 3.70575C11.2295 2.46311 10.2221 1.45575 8.97949 1.45575C7.73685 1.45575 6.72949 2.46311 6.72949 3.70575C6.72949 4.94839 7.73685 5.95575 8.97949 5.95575Z" stroke="white" stroke-width="2"/>
<path d="M2.97949 8.20575C3.80792 8.20575 4.47949 7.53418 4.47949 6.70575C4.47949 5.87732 3.80792 5.20575 2.97949 5.20575C2.15106 5.20575 1.47949 5.87732 1.47949 6.70575C1.47949 7.53418 2.15106 8.20575 2.97949 8.20575Z" stroke="white" stroke-width="2"/>
<path d="M14.9795 8.20575C15.8079 8.20575 16.4795 7.53418 16.4795 6.70575C16.4795 5.87732 15.8079 5.20575 14.9795 5.20575C14.1511 5.20575 13.4795 5.87732 13.4795 6.70575C13.4795 7.53418 14.1511 8.20575 14.9795 8.20575Z" stroke="white" stroke-width="2"/>
<path d="M2.97943 10.4557H2.74993C2.39486 10.4557 2.05127 10.5816 1.78032 10.8111C1.50936 11.0406 1.32859 11.3588 1.27018 11.709L1.02043 13.209C0.984594 13.4239 0.996 13.644 1.05386 13.8541C1.11172 14.0642 1.21465 14.2591 1.35548 14.4253C1.49631 14.5916 1.67167 14.7251 1.86935 14.8167C2.06704 14.9083 2.28231 14.9558 2.50018 14.9557H5.22943" stroke="white" stroke-width="2" stroke-linecap="round" stroke-linejoin="round"/>
<path d="M14.9795 10.4557H15.209C15.5641 10.4557 15.9077 10.5816 16.1786 10.8111C16.4496 11.0406 16.6303 11.3588 16.6887 11.709L16.9385 13.209C16.9743 13.4239 16.9629 13.644 16.9051 13.8541C16.8472 14.0642 16.7443 14.2591 16.6034 14.4253C16.4626 14.5916 16.2873 14.7251 16.0896 14.8167C15.8919 14.9083 15.6766 14.9558 15.4587 14.9557H12.7295" stroke="white" stroke-width="2" stroke-linecap="round" stroke-linejoin="round"/>
</svg>
