<svg width="20" height="21" viewBox="0 0 20 21" fill="none" xmlns="http://www.w3.org/2000/svg">
<path d="M3.59375 4.987H10.7812V11.5495H3.59375V4.987Z" fill="white"/>
<path d="M12.1875 12.7995C12.1875 12.8854 12.1172 12.9557 12.0312 12.9557H9.84375V14.3815H16.4062V7.81903H12.1875V12.7995Z" fill="white"/>
<path d="M17.1875 6.41278H12.1875V4.20575C12.1875 3.86005 11.9082 3.58075 11.5625 3.58075H3.59375V2.7995C3.59375 2.71356 3.52344 2.64325 3.4375 2.64325H2.34375C2.25781 2.64325 2.1875 2.71356 2.1875 2.7995V18.112C2.1875 18.1979 2.25781 18.2683 2.34375 18.2683H3.4375C3.52344 18.2683 3.59375 18.1979 3.59375 18.112V12.9558H8.4375V15.1628C8.4375 15.5085 8.7168 15.7878 9.0625 15.7878H17.1875C17.5332 15.7878 17.8125 15.5085 17.8125 15.1628V7.03778C17.8125 6.69208 17.5332 6.41278 17.1875 6.41278ZM3.59375 11.5495V4.987H10.7812V11.5495H3.59375ZM16.4063 14.3815H9.84375V12.9558H12.0312C12.1172 12.9558 12.1875 12.8854 12.1875 12.7995V7.81903H16.4063V14.3815Z" fill="white"/>
</svg>
