<svg width="18" height="19" viewBox="0 0 18 19" fill="none" xmlns="http://www.w3.org/2000/svg">
<path d="M16.9875 0.447425L17.4792 0.939092C18.1567 1.61742 18.0542 2.81993 17.2483 3.62493L7.10917 13.7641L3.82417 14.9658C3.41167 15.1174 3.01 14.9208 2.92833 14.5283C2.90073 14.3859 2.91373 14.2386 2.96583 14.1033L4.19083 10.7899L14.3017 0.678258C15.1075 -0.126742 16.31 -0.230075 16.9875 0.448258V0.447425ZM6.66667 1.45576C6.7761 1.45576 6.88446 1.47731 6.98557 1.51919C7.08667 1.56107 7.17854 1.62245 7.25592 1.69984C7.3333 1.77722 7.39469 1.86908 7.43657 1.97019C7.47844 2.07129 7.5 2.17966 7.5 2.28909C7.5 2.39853 7.47844 2.50689 7.43657 2.60799C7.39469 2.7091 7.3333 2.80097 7.25592 2.87835C7.17854 2.95573 7.08667 3.01711 6.98557 3.05899C6.88446 3.10087 6.7761 3.12243 6.66667 3.12243H3.33333C2.89131 3.12243 2.46738 3.29802 2.15482 3.61058C1.84226 3.92314 1.66667 4.34706 1.66667 4.78909V14.7891C1.66667 15.2311 1.84226 15.655 2.15482 15.9676C2.46738 16.2802 2.89131 16.4558 3.33333 16.4558H13.3333C13.7754 16.4558 14.1993 16.2802 14.5118 15.9676C14.8244 15.655 15 15.2311 15 14.7891V11.4558C15 11.2347 15.0878 11.0228 15.2441 10.8665C15.4004 10.7102 15.6123 10.6224 15.8333 10.6224C16.0543 10.6224 16.2663 10.7102 16.4226 10.8665C16.5789 11.0228 16.6667 11.2347 16.6667 11.4558V14.7891C16.6667 15.6731 16.3155 16.521 15.6904 17.1461C15.0652 17.7712 14.2174 18.1224 13.3333 18.1224H3.33333C2.44928 18.1224 1.60143 17.7712 0.976311 17.1461C0.351189 16.521 0 15.6731 0 14.7891V4.78909C0 3.90504 0.351189 3.05719 0.976311 2.43207C1.60143 1.80695 2.44928 1.45576 3.33333 1.45576H6.66667V1.45576Z" fill="white"/>
</svg>
