<svg width="20" height="20" viewBox="0 0 20 20" fill="none" xmlns="http://www.w3.org/2000/svg">
<path d="M17.8333 4.98355L14.3333 6.95577V4.23355C14.3333 3.93886 14.2163 3.65625 14.0079 3.44787C13.7995 3.2395 13.5169 3.12244 13.2222 3.12244H3.22222C2.63285 3.12244 2.06762 3.35656 1.65087 3.77331C1.23413 4.19006 1 4.75529 1 5.34466V14.2335C1 14.8229 1.23413 15.3881 1.65087 15.8049C2.06762 16.2216 2.63285 16.4558 3.22222 16.4558H13.2222C13.5169 16.4558 13.7995 16.3387 14.0079 16.1303C14.2163 15.922 14.3333 15.6393 14.3333 15.3447V12.6113L17.8333 14.5835C17.9231 14.6422 18.0268 14.6762 18.1339 14.6821C18.241 14.6881 18.3477 14.6657 18.4435 14.6173C18.5392 14.5688 18.6205 14.4961 18.6791 14.4063C18.7378 14.3165 18.7718 14.2129 18.7778 14.1058V5.45577C18.7709 5.34915 18.7363 5.24618 18.6772 5.15715C18.6181 5.06811 18.5368 4.99611 18.4412 4.94833C18.3457 4.90055 18.2392 4.87866 18.1326 4.88484C18.0259 4.89102 17.9227 4.92505 17.8333 4.98355Z" fill="white"/>
</svg>
