<svg width="20" height="20" viewBox="0 0 20 20" fill="none" xmlns="http://www.w3.org/2000/svg">
<path d="M17.875 3.12244H13.4063C12.4473 3.12244 11.5098 3.39783 10.7031 3.91736L9.75 4.52869L8.79688 3.91736C7.99104 3.39793 7.05249 3.12192 6.09375 3.12244H1.625C1.2793 3.12244 1 3.40173 1 3.74744V14.8412C1 15.1869 1.2793 15.4662 1.625 15.4662H6.09375C7.05273 15.4662 7.99023 15.7416 8.79688 16.2611L9.66406 16.8197C9.68945 16.8353 9.71875 16.8451 9.74805 16.8451C9.77734 16.8451 9.80664 16.8373 9.83203 16.8197L10.6992 16.2611C11.5078 15.7416 12.4473 15.4662 13.4063 15.4662H17.875C18.2207 15.4662 18.5 15.1869 18.5 14.8412V3.74744C18.5 3.40173 18.2207 3.12244 17.875 3.12244ZM7.64062 10.7885C7.64062 10.8685 7.57812 10.9349 7.50195 10.9349H3.87305C3.79688 10.9349 3.73438 10.8685 3.73438 10.7885V9.90955C3.73438 9.82947 3.79688 9.76306 3.87305 9.76306H7.5C7.57617 9.76306 7.63867 9.82947 7.63867 9.90955V10.7885H7.64062ZM7.64062 8.05408C7.64062 8.13416 7.57812 8.20056 7.50195 8.20056H3.87305C3.79688 8.20056 3.73438 8.13416 3.73438 8.05408V7.17517C3.73438 7.09509 3.79688 7.02869 3.87305 7.02869H7.5C7.57617 7.02869 7.63867 7.09509 7.63867 7.17517V8.05408H7.64062ZM15.7656 10.7885C15.7656 10.8685 15.7031 10.9349 15.627 10.9349H11.998C11.9219 10.9349 11.8594 10.8685 11.8594 10.7885V9.90955C11.8594 9.82947 11.9219 9.76306 11.998 9.76306H15.625C15.7012 9.76306 15.7637 9.82947 15.7637 9.90955V10.7885H15.7656ZM15.7656 8.05408C15.7656 8.13416 15.7031 8.20056 15.627 8.20056H11.998C11.9219 8.20056 11.8594 8.13416 11.8594 8.05408V7.17517C11.8594 7.09509 11.9219 7.02869 11.998 7.02869H15.625C15.7012 7.02869 15.7637 7.09509 15.7637 7.17517V8.05408H15.7656Z" fill="white"/>
</svg>
