<svg width="17" height="17" viewBox="0 0 17 17" fill="none" xmlns="http://www.w3.org/2000/svg">
<path d="M14 4.56248H11.875L11.3687 3.14373C11.3338 3.04665 11.2697 2.96274 11.1852 2.90345C11.1008 2.84416 11.0001 2.81239 10.8969 2.81248H6.10313C5.89219 2.81248 5.70312 2.9453 5.63281 3.14373L5.125 4.56248H3C2.30937 4.56248 1.75 5.12186 1.75 5.81248V12.9375C1.75 13.6281 2.30937 14.1875 3 14.1875H14C14.6906 14.1875 15.25 13.6281 15.25 12.9375V5.81248C15.25 5.12186 14.6906 4.56248 14 4.56248ZM8.5 11.6875C7.11875 11.6875 6 10.5687 6 9.18748C6 7.80623 7.11875 6.68748 8.5 6.68748C9.88125 6.68748 11 7.80623 11 9.18748C11 10.5687 9.88125 11.6875 8.5 11.6875ZM7 9.18748C7 9.58531 7.15804 9.96684 7.43934 10.2481C7.72064 10.5294 8.10218 10.6875 8.5 10.6875C8.89782 10.6875 9.27936 10.5294 9.56066 10.2481C9.84196 9.96684 10 9.58531 10 9.18748C10 8.78966 9.84196 8.40813 9.56066 8.12682C9.27936 7.84552 8.89782 7.68748 8.5 7.68748C8.10218 7.68748 7.72064 7.84552 7.43934 8.12682C7.15804 8.40813 7 8.78966 7 9.18748Z" fill="#18191A"/>
</svg>
