<svg width="21" height="21" viewBox="0 0 21 21" fill="none" xmlns="http://www.w3.org/2000/svg">
<path d="M17.3125 5.1875H14.6562L14.0234 3.41406C13.9797 3.29271 13.8996 3.18782 13.794 3.11371C13.6885 3.0396 13.5626 2.99989 13.4336 3H7.44141C7.17773 3 6.94141 3.16602 6.85352 3.41406L6.21875 5.1875H3.5625C2.69922 5.1875 2 5.88672 2 6.75V15.6562C2 16.5195 2.69922 17.2188 3.5625 17.2188H17.3125C18.1758 17.2188 18.875 16.5195 18.875 15.6562V6.75C18.875 5.88672 18.1758 5.1875 17.3125 5.1875ZM10.4375 14.0938C8.71094 14.0938 7.3125 12.6953 7.3125 10.9688C7.3125 9.24219 8.71094 7.84375 10.4375 7.84375C12.1641 7.84375 13.5625 9.24219 13.5625 10.9688C13.5625 12.6953 12.1641 14.0938 10.4375 14.0938ZM8.5625 10.9688C8.5625 11.466 8.76004 11.9429 9.11167 12.2946C9.46331 12.6462 9.94022 12.8438 10.4375 12.8438C10.9348 12.8438 11.4117 12.6462 11.7633 12.2946C12.115 11.9429 12.3125 11.466 12.3125 10.9688C12.3125 10.4715 12.115 9.99456 11.7633 9.64292C11.4117 9.29129 10.9348 9.09375 10.4375 9.09375C9.94022 9.09375 9.46331 9.29129 9.11167 9.64292C8.76004 9.99456 8.5625 10.4715 8.5625 10.9688Z" fill="#E5E5E5"/>
</svg>
