<svg width="18" height="19" viewBox="0 0 18 19" fill="none" xmlns="http://www.w3.org/2000/svg">
<path d="M2.32595 9.68816C4.05732 9.68816 5.6852 10.366 6.90807 11.595C7.51345 12.2008 7.993 12.9204 8.31911 13.7123C8.64521 14.5042 8.81143 15.3528 8.8082 16.2092H11.4773C11.4773 11.1422 7.37101 7.02079 2.32538 7.02079V9.68816H2.32595ZM2.32932 4.95866C8.5022 4.95866 13.5231 10.0071 13.5231 16.212H16.1904C16.1904 8.53616 9.97257 2.29016 2.32932 2.29016V4.95866V4.95866ZM6.01932 14.3468C6.01939 14.5895 5.97166 14.8299 5.87884 15.0542C5.78602 15.2785 5.64993 15.4823 5.47834 15.6539C5.30676 15.8256 5.10303 15.9619 4.87881 16.0548C4.65458 16.1478 4.41424 16.1956 4.17151 16.1957C3.92878 16.1958 3.68841 16.1481 3.46412 16.0552C3.23984 15.9624 3.03603 15.8263 2.86434 15.6547C2.69266 15.4832 2.55644 15.2794 2.46349 15.0552C2.37053 14.831 2.32264 14.5906 2.32257 14.3479C2.3225 13.8577 2.51716 13.3875 2.86375 13.0408C3.21033 12.6941 3.68045 12.4993 4.17066 12.4993C4.66088 12.4992 5.13105 12.6938 5.47775 13.0404C5.82444 13.387 6.01925 13.8571 6.01932 14.3473V14.3468Z" fill="#C4C4C4"/>
</svg>
