<svg width="14" height="15" viewBox="0 0 14 15" fill="none" xmlns="http://www.w3.org/2000/svg">
<path d="M3.90833 7.25956C3.91051 7.90605 3.99147 8.54987 4.14944 9.17678H6.66944V5.49011H4.11444C3.98 6.0704 3.91087 6.6639 3.90833 7.25956Z" fill="#C4C4C4"/>
<path d="M7.33057 5.49011V9.17678H9.85057C10.0151 8.55068 10.1026 7.90685 10.1111 7.25956C10.1099 6.66405 10.042 6.07055 9.9089 5.49011H7.33057Z" fill="#C4C4C4"/>
<path d="M7 1.03735C5.76936 1.03735 4.56635 1.40228 3.54311 2.08599C2.51988 2.76969 1.72236 3.74147 1.25141 4.87843C0.780467 6.0154 0.657246 7.26648 0.897332 8.47347C1.13742 9.68046 1.73003 10.7892 2.60022 11.6594C3.47041 12.5295 4.57911 13.1222 5.7861 13.3622C6.99309 13.6023 8.24417 13.4791 9.38114 13.0082C10.5181 12.5372 11.4899 11.7397 12.1736 10.7165C12.8573 9.69322 13.2222 8.49022 13.2222 7.25958C13.2222 5.60934 12.5667 4.02669 11.3998 2.8598C10.2329 1.69291 8.65023 1.03735 7 1.03735ZM11.7522 9.86902H10.3444C10.0783 10.7023 9.68472 11.4894 9.17777 12.2024C8.80368 12.3654 8.41229 12.4854 8.01111 12.5601C8.72957 11.7794 9.28253 10.8614 9.63666 9.86124H7.33444V12.6418H6.67722V9.86902H4.36333C4.71699 10.8705 5.26997 11.79 5.98888 12.5718C5.59597 12.4979 5.2125 12.3805 4.84555 12.2218C4.33682 11.5029 3.94321 10.7091 3.67888 9.86902H2.24777C2.12354 9.64238 2.01567 9.40716 1.925 9.16513H3.48055C3.33479 8.5403 3.25914 7.90117 3.255 7.25958C3.25521 6.66486 3.31778 6.0718 3.44166 5.49013H1.85111C1.93289 5.24882 2.03165 5.0136 2.14666 4.78624H3.62833C3.90634 3.86031 4.33749 2.9875 4.90388 2.20402C5.26305 2.0552 5.63727 1.94567 6.02 1.87735C5.24637 2.70765 4.66251 3.69622 4.30888 4.77458H6.67722V1.81513H7.33444V4.78624H9.70277C9.34978 3.70962 8.7673 2.72244 7.99555 1.89291C8.37767 1.9563 8.75186 2.0606 9.11166 2.20402C9.67476 2.98184 10.1045 3.84792 10.3833 4.7668H11.8494C11.9644 4.99416 12.0632 5.22938 12.145 5.47069H10.5661C10.6927 6.05857 10.7565 6.65822 10.7567 7.25958C10.7547 7.90493 10.6803 8.54802 10.535 9.1768H12.0906C11.9943 9.41527 11.8813 9.6466 11.7522 9.86902Z" fill="#C4C4C4"/>
</svg>
