<svg width="24" height="24" viewBox="0 0 24 24" fill="none" xmlns="http://www.w3.org/2000/svg">
<path d="M14.04 10.92L11.52 10.36C10.56 10.12 9.48 9.84 9.48 8.92C9.48 8 10.24 7.36 11.64 7.36C14.48 7.36 14.24 9.32 15.64 9.32C16.36 9.32 17 8.92 17 8.16C17 6.4 14.2 5.08 11.8 5.08C9.24 5.08 6.52 6.16 6.52 9.08C6.52 10.48 7 12 9.76 12.72L13.2 13.6C14.24 13.84 14.56 14.44 14.56 14.96C14.56 15.84 13.64 16.8 12.08 16.8C9 16.8 9.44 14.36 7.8 14.36C7.08 14.36 6.48 14.88 6.48 15.6C6.48 17.04 8.24 19 12.08 19C15.76 19 17.6 17.16 17.6 14.76C17.56 13.16 16.84 11.56 14.04 10.92V10.92ZM23.12 13.96C23.24 13.32 23.28 12.68 23.28 12C23.28 5.76 18.24 0.72 12 0.72C11.32 0.72 10.68 0.76 10.04 0.88C9.04 0.32 7.92 0 6.72 0C3 0 0 3 0 6.72C0 7.92 0.32 9.08 0.88 10.04C0.76 10.68 0.72 11.32 0.72 12C0.72 18.24 5.76 23.28 12 23.28C12.68 23.28 13.32 23.24 13.96 23.12C14.96 23.68 16.08 24 17.28 24C21 24 24 21 24 17.28C24 16.08 23.68 14.92 23.12 13.96V13.96ZM17.28 22.28C16.4 22.28 15.56 22.04 14.8 21.64L14.28 21.32L13.68 21.44C13.16 21.52 12.6 21.6 12 21.6C9.46453 21.6 7.03291 20.5928 5.24006 18.7999C3.44721 17.0071 2.44 14.5755 2.44 12.04C2.44 11.48 2.48 10.92 2.6 10.36L2.72 9.76L2.4 9.24C1.96 8.48 1.76 7.64 1.76 6.76C1.76 4 4 1.76 6.76 1.76C7.64 1.76 8.48 2 9.24 2.4L9.76 2.72L10.36 2.6C10.92 2.52 11.48 2.44 12.04 2.44C13.2954 2.44 14.5386 2.68728 15.6985 3.16771C16.8583 3.64815 17.9122 4.35233 18.7999 5.24006C19.6877 6.12779 20.3919 7.18167 20.8723 8.34155C21.3527 9.50142 21.6 10.7446 21.6 12C21.6 12.56 21.56 13.12 21.44 13.68L21.32 14.28L21.64 14.8C22.08 15.56 22.28 16.4 22.28 17.28C22.28 20.04 20.04 22.28 17.28 22.28V22.28Z" fill="white"/>
</svg>
