<svg width="24" height="24" viewBox="0 0 24 24" fill="none" xmlns="http://www.w3.org/2000/svg">
<path d="M9.6 10.8C10.5548 10.8 11.4705 10.4207 12.1456 9.74559C12.8207 9.07046 13.2 8.15478 13.2 7.20001C13.2 6.24523 12.8207 5.32955 12.1456 4.65442C11.4705 3.97929 10.5548 3.60001 9.6 3.60001C8.64522 3.60001 7.72955 3.97929 7.05442 4.65442C6.37928 5.32955 6 6.24523 6 7.20001C6 8.15478 6.37928 9.07046 7.05442 9.74559C7.72955 10.4207 8.64522 10.8 9.6 10.8V10.8Z" fill="white"/>
<path d="M9.5999 13.2C11.5095 13.2 13.3408 13.9586 14.6911 15.3088C16.0413 16.6591 16.7999 18.4905 16.7999 20.4H2.3999C2.3999 18.4905 3.15847 16.6591 4.50873 15.3088C5.859 13.9586 7.69034 13.2 9.5999 13.2V13.2Z" fill="white"/>
<path d="M19.1999 8.40001C19.1999 8.08175 19.0735 7.77653 18.8484 7.55148C18.6234 7.32644 18.3182 7.20001 17.9999 7.20001C17.6816 7.20001 17.3764 7.32644 17.1514 7.55148C16.9263 7.77653 16.7999 8.08175 16.7999 8.40001V9.60001H15.5999C15.2816 9.60001 14.9764 9.72644 14.7514 9.95148C14.5263 10.1765 14.3999 10.4818 14.3999 10.8C14.3999 11.1183 14.5263 11.4235 14.7514 11.6485C14.9764 11.8736 15.2816 12 15.5999 12H16.7999V13.2C16.7999 13.5183 16.9263 13.8235 17.1514 14.0485C17.3764 14.2736 17.6816 14.4 17.9999 14.4C18.3182 14.4 18.6234 14.2736 18.8484 14.0485C19.0735 13.8235 19.1999 13.5183 19.1999 13.2V12H20.3999C20.7182 12 21.0234 11.8736 21.2484 11.6485C21.4735 11.4235 21.5999 11.1183 21.5999 10.8C21.5999 10.4818 21.4735 10.1765 21.2484 9.95148C21.0234 9.72644 20.7182 9.60001 20.3999 9.60001H19.1999V8.40001Z" fill="white"/>
</svg>
