<svg width="24" height="24" viewBox="0 0 24 24" fill="none" xmlns="http://www.w3.org/2000/svg">
<path d="M21 3V5C21 6.85651 20.2625 8.63699 18.9497 9.94975C17.637 11.2625 15.8565 12 14 12H13V13H18V20C18 20.5304 17.7893 21.0391 17.4142 21.4142C17.0391 21.7893 16.5304 22 16 22H8C7.46957 22 6.96086 21.7893 6.58579 21.4142C6.21071 21.0391 6 20.5304 6 20V13H11V10C11 8.14348 11.7375 6.36301 13.0503 5.05025C14.363 3.7375 16.1435 3 18 3H21ZM5.5 2C6.69998 1.99903 7.88262 2.28638 8.94836 2.83787C10.0141 3.38936 10.9317 4.18884 11.624 5.169C10.5674 6.55758 9.99672 8.25512 10 10V11H9.5C7.51088 11 5.60322 10.2098 4.1967 8.8033C2.79018 7.39678 2 5.48912 2 3.5V2H5.5Z" fill="#C1436D"/>
</svg>
