<svg width="24" height="24" viewBox="0 0 24 24" fill="none" xmlns="http://www.w3.org/2000/svg">
<path d="M8.7 4.7C9.6 4.3 10.5 4.1 11.5 4V6.5C11.5 6.8 11.7 7 12 7C12.3 7 12.5 6.8 12.5 6.5V4C14.3 4.1 16 4.8 17.3 6L17 6.3C16.9 6.4 16.9 6.5 16.9 6.7C16.9 7 17.1 7.2 17.4 7.2C17.5 7.2 17.7 7.1 17.8 7.1L18 6.7C19.1 8 19.9 9.7 20 11.5H17.5C17.2 11.5 17 11.7 17 12C17 12.3 17.2 12.5 17.5 12.5H20C19.9 13.5 19.7 14.4 19.3 15.3C19.2 15.6 19.3 15.8 19.5 16H19.7C19.9 16 20.1 15.9 20.2 15.7C20.7 14.7 20.9 13.6 21 12.5H22.5C22.8 12.5 23 12.3 23 12C23 11.7 22.8 11.5 22.5 11.5H21C20.9 9.4 20 7.5 18.7 6L19.7 5C19.9 4.8 19.9 4.5 19.7 4.3C19.5 4.1 19.2 4.1 19 4.3L18 5.3C16.5 4 14.6 3.1 12.5 3V1.5C12.5 1.2 12.3 1 12 1C11.7 1 11.5 1.2 11.5 1.5V3C10.4 3.1 9.3 3.3 8.3 3.8C8 3.9 7.9 4.2 8 4.5C8.2 4.7 8.5 4.8 8.7 4.7ZM9 13.5C8.2 13.5 7.5 14.2 7.5 15C7.5 15.8 8.2 16.5 9 16.5C9.8 16.5 10.5 15.8 10.5 15C10.5 14.2 9.8 13.5 9 13.5ZM9 15.5C8.7 15.5 8.5 15.3 8.5 15C8.5 14.7 8.7 14.5 9 14.5C9.3 14.5 9.5 14.7 9.5 15C9.5 15.3 9.3 15.5 9 15.5ZM1.9 1.1C1.7 1 1.3 1 1.2 1.1C1 1.3 1 1.7 1.1 1.9L5.3 6C3.9 7.5 3.1 9.5 3 11.5H1.5C1.2 11.5 1 11.7 1 12C1 12.3 1.2 12.5 1.5 12.5H3C3.1 14.6 4 16.5 5.3 18L4.3 19C4.2 19.1 4.2 19.2 4.2 19.4C4.2 19.7 4.4 19.9 4.7 19.9C4.8 19.9 5 19.8 5.1 19.8L6.1 18.8C7.6 20.1 9.5 21 11.6 21.1V22.6C11.6 22.9 11.8 23.1 12.1 23.1C12.4 23.1 12.6 22.9 12.6 22.6V21C14.6 20.9 16.6 20.1 18.1 18.7L22.3 22.9C22.4 23 22.5 23 22.7 23C22.8 23 23 22.9 23.1 22.9C23.3 22.7 23.3 22.4 23.1 22.2L1.9 1.1ZM9 9.7L10.4 11.1C10.2 11.4 9.9 11.6 9.6 11.6C9 11.6 8.6 11.2 8.6 10.6C8.5 10.2 8.7 9.8 9 9.7ZM12.5 20V16.5C12.5 16.2 12.3 16 12 16C11.7 16 11.5 16.2 11.5 16.5V20C9.8 19.9 8.1 19.2 6.7 18L7 17.7C7.2 17.5 7.2 17.2 7 17C6.8 16.8 6.5 16.8 6.3 17L6 17.3C4.8 15.9 4.1 14.2 4 12.5H6.5C6.8 12.5 7 12.3 7 12C7 11.7 6.8 11.5 6.5 11.5H4C4.1 9.8 4.8 8.1 6 6.7L8.3 9C7.8 9.4 7.5 9.9 7.5 10.5C7.5 11.6 8.4 12.5 9.5 12.5C10.1 12.5 10.7 12.2 11 11.7L17.2 17.9C15.9 19.2 14.2 19.9 12.5 20ZM13.5 9C13.5 9.8 14.2 10.5 15 10.5C15.8 10.5 16.5 9.8 16.5 9C16.5 8.2 15.8 7.5 15 7.5C14.2 7.5 13.5 8.2 13.5 9ZM15.5 9C15.5 9.3 15.3 9.5 15 9.5C14.7 9.5 14.5 9.3 14.5 9C14.5 8.7 14.7 8.5 15 8.5C15.3 8.5 15.5 8.7 15.5 9Z" fill="#C1436D"/>
</svg>
