<svg width="22" height="22" viewBox="0 0 22 22" fill="none" xmlns="http://www.w3.org/2000/svg">
<path d="M11 0C8.08262 0 5.28473 1.15893 3.22183 3.22183C1.15893 5.28473 0 8.08262 0 11C0 13.9174 1.15893 16.7153 3.22183 18.7782C5.28473 20.8411 8.08262 22 11 22C13.9174 22 16.7153 20.8411 18.7782 18.7782C20.8411 16.7153 22 13.9174 22 11C22 8.08262 20.8411 5.28473 18.7782 3.22183C16.7153 1.15893 13.9174 0 11 0V0ZM6.5395 6.27825C7.58862 4.32025 12.067 6.11325 7.8485 11C1.6665 8.8055 4.61725 5.09025 6.5395 6.27825ZM15.5581 13.7692C15.6886 13.7385 15.8253 13.7466 15.9513 13.7926C16.0773 13.8385 16.187 13.9203 16.2671 14.0279C16.3472 14.1354 16.3941 14.2641 16.402 14.3979C16.4099 14.5318 16.3785 14.665 16.3116 14.7812C15.7687 15.7222 14.9874 16.5036 14.0465 17.0467C13.1056 17.5898 12.0383 17.8755 10.9519 17.875C9.86548 17.8755 8.79812 17.5898 7.85722 17.0467C6.91632 16.5036 6.13508 15.7222 5.59212 14.7812C5.52526 14.665 5.49385 14.5318 5.50176 14.3979C5.50967 14.2641 5.55655 14.1354 5.63663 14.0279C5.71671 13.9203 5.8265 13.8385 5.95247 13.7926C6.07844 13.7466 6.2151 13.7385 6.34562 13.7692H6.3525L6.37587 13.7761L6.468 13.7968L6.8145 13.8724C7.11012 13.9356 7.52263 14.0209 7.99288 14.1048C8.94575 14.2753 10.0856 14.4375 10.9519 14.4375C11.8181 14.4375 12.9594 14.2753 13.9109 14.1048C14.4213 14.0129 14.9297 13.9102 15.4358 13.7968L15.5279 13.7761L15.5513 13.7706L15.5581 13.7679V13.7692ZM15.4619 6.27825C17.3827 5.09025 20.3335 8.8055 14.1515 11C9.93437 6.11325 14.4128 4.32025 15.4605 6.27825H15.4619Z" fill="#C1436D"/>
</svg>
