<svg width="32" height="31" viewBox="0 0 32 31" fill="none" xmlns="http://www.w3.org/2000/svg">
<rect width="31.9589" height="31" rx="15.5" fill="url(#paint0_linear)"/>
<path d="M19.5187 21.314L19.0387 17.471C18.9707 16.9267 18.7061 16.4259 18.2948 16.063C17.8835 15.7 17.3537 15.4998 16.8052 15.5H15.1522C14.6039 15.5002 14.0745 15.7005 13.6635 16.0635C13.2525 16.4264 12.9882 16.9269 12.9202 17.471L12.4394 21.314C12.413 21.5251 12.4319 21.7395 12.4947 21.9428C12.5575 22.1461 12.6628 22.3337 12.8037 22.4931C12.9446 22.6526 13.1178 22.7803 13.3118 22.8676C13.5058 22.955 13.7162 23.0002 13.9289 23H18.0299C18.2426 23 18.4529 22.9549 18.6468 22.8674C18.8408 22.78 19.0139 22.6523 19.1547 22.4928C19.2954 22.3334 19.4007 22.1458 19.4635 21.9426C19.5262 21.7393 19.5451 21.5251 19.5187 21.314V21.314Z" stroke="white" stroke-width="2" stroke-linecap="round" stroke-linejoin="round"/>
<path d="M15.9794 12.5C17.2221 12.5 18.2294 11.4926 18.2294 10.25C18.2294 9.00736 17.2221 8 15.9794 8C14.7368 8 13.7294 9.00736 13.7294 10.25C13.7294 11.4926 14.7368 12.5 15.9794 12.5Z" stroke="white" stroke-width="2"/>
<path d="M9.97943 14.75C10.8079 14.75 11.4794 14.0784 11.4794 13.25C11.4794 12.4216 10.8079 11.75 9.97943 11.75C9.151 11.75 8.47943 12.4216 8.47943 13.25C8.47943 14.0784 9.151 14.75 9.97943 14.75Z" stroke="white" stroke-width="2"/>
<path d="M21.9794 14.75C22.8079 14.75 23.4794 14.0784 23.4794 13.25C23.4794 12.4216 22.8079 11.75 21.9794 11.75C21.151 11.75 20.4794 12.4216 20.4794 13.25C20.4794 14.0784 21.151 14.75 21.9794 14.75Z" stroke="white" stroke-width="2"/>
<path d="M9.97943 17H9.74993C9.39486 17 9.05127 17.1259 8.78032 17.3554C8.50936 17.5848 8.32859 17.903 8.27018 18.2532L8.02043 19.7532C7.98459 19.9682 7.996 20.1883 8.05386 20.3984C8.11172 20.6084 8.21465 20.8033 8.35548 20.9696C8.49631 21.1358 8.67167 21.2694 8.86935 21.361C9.06704 21.4526 9.28231 21.5 9.50018 21.5H12.2294" stroke="white" stroke-width="2" stroke-linecap="round" stroke-linejoin="round"/>
<path d="M21.9794 17H22.2089C22.564 17 22.9076 17.1259 23.1785 17.3554C23.4495 17.5848 23.6303 17.903 23.6887 18.2532L23.9384 19.7532C23.9743 19.9682 23.9629 20.1883 23.905 20.3984C23.8471 20.6084 23.7442 20.8033 23.6034 20.9696C23.4626 21.1358 23.2872 21.2694 23.0895 21.361C22.8918 21.4526 22.6766 21.5 22.4587 21.5H19.7294" stroke="white" stroke-width="2" stroke-linecap="round" stroke-linejoin="round"/>
<defs>
<linearGradient id="paint0_linear" x1="15.9794" y1="0" x2="15.9794" y2="31" gradientUnits="userSpaceOnUse">
<stop stop-color="#F4ABAA"/>
<stop offset="1" stop-color="#C1436D"/>
</linearGradient>
</defs>
</svg>
