<svg width="32" height="32" viewBox="0 0 32 32" fill="none" xmlns="http://www.w3.org/2000/svg">
<path fill-rule="evenodd" clip-rule="evenodd" d="M6.17533 4C5.92333 4 5.69867 4.17467 5.612 4.43733L4.07333 9.11133C4.02475 9.25914 4 9.41374 4 9.56933V11.4287C4 12.48 4.76733 13.3333 5.714 13.3333C6.66067 13.3333 7.42867 12.48 7.42867 11.4287C7.42867 12.4807 8.196 13.3333 9.14267 13.3333C10.0893 13.3333 10.8573 12.48 10.8573 11.4287C10.8573 12.4807 11.6247 13.3333 12.5713 13.3333C13.518 13.3333 14.2847 12.4813 14.286 11.43C14.286 12.4813 15.0533 13.3333 16 13.3333C16.9467 13.3333 17.714 12.48 17.714 11.4287C17.714 12.4807 18.482 13.3333 19.4287 13.3333C20.3753 13.3333 21.142 12.4813 21.1427 11.43C21.1433 12.4813 21.9107 13.3333 22.8573 13.3333C23.804 13.3333 24.5713 12.48 24.5713 11.4287C24.5713 12.4807 25.3387 13.3333 26.286 13.3333C27.2327 13.3333 28 12.48 28 11.4287V9.56933C28 9.41374 27.9753 9.25914 27.9267 9.11133L26.388 4.438C26.3013 4.17467 26.0767 4 25.8247 4H6.17533Z" fill="url(#paint0_linear)"/>
<path fill-rule="evenodd" clip-rule="evenodd" d="M6.66669 14.1533V19.3333H5.00002C4.91161 19.3333 4.82683 19.3684 4.76432 19.431C4.70181 19.4935 4.66669 19.5783 4.66669 19.6667V20.3333C4.66669 20.4217 4.70181 20.5065 4.76432 20.569C4.82683 20.6315 4.91161 20.6667 5.00002 20.6667H27C27.0884 20.6667 27.1732 20.6315 27.2357 20.569C27.2982 20.5065 27.3334 20.4217 27.3334 20.3333V19.6667C27.3334 19.5783 27.2982 19.4935 27.2357 19.431C27.1732 19.3684 27.0884 19.3333 27 19.3333H25.3334V14.1533C25.0543 14.0421 24.7965 13.8836 24.5714 13.6847C24.3985 13.8371 24.2064 13.9662 24 14.0687V19.3333H8.00002V14.0687C7.79361 13.9662 7.60152 13.8371 7.42869 13.6847C7.20469 13.8813 6.94869 14.0413 6.66669 14.1533ZM24 12.8487C24.0567 12.792 24.11 12.7313 24.16 12.6667H24V12.8487ZM24.9827 12.6667C25.0835 12.7972 25.2014 12.9136 25.3334 13.0127V12.6667H24.9827ZM6.66669 13.0127C6.79928 12.9144 6.91733 12.7979 7.01735 12.6667H6.66669V13.0127ZM7.84002 12.6667H8.00002V12.8487C7.94275 12.7916 7.88931 12.7308 7.84002 12.6667ZM5.66669 22C5.57828 22 5.4935 22.0351 5.43098 22.0976C5.36847 22.1601 5.33335 22.2449 5.33335 22.3333V27.3333C5.33335 27.5101 5.40359 27.6797 5.52862 27.8047C5.65364 27.9298 5.82321 28 6.00002 28H26C26.1768 28 26.3464 27.9298 26.4714 27.8047C26.5965 27.6797 26.6667 27.5101 26.6667 27.3333V22.3333C26.6667 22.2449 26.6316 22.1601 26.5691 22.0976C26.5065 22.0351 26.4218 22 26.3334 22H5.66669Z" fill="url(#paint1_linear)"/>
<path d="M11.6666 17.3333H9.66665C9.48255 17.3333 9.33331 17.4826 9.33331 17.6667V19C9.33331 19.1841 9.48255 19.3333 9.66665 19.3333H11.6666C11.8507 19.3333 12 19.1841 12 19V17.6667C12 17.4826 11.8507 17.3333 11.6666 17.3333Z" fill="url(#paint2_linear)"/>
<path d="M13 18H11C10.8159 18 10.6667 18.1492 10.6667 18.3333V19C10.6667 19.1841 10.8159 19.3333 11 19.3333H13C13.1841 19.3333 13.3334 19.1841 13.3334 19V18.3333C13.3334 18.1492 13.1841 18 13 18Z" fill="url(#paint3_linear)"/>
<path d="M15 19.3333C15.5523 19.3333 16 18.8856 16 18.3333C16 17.7811 15.5523 17.3333 15 17.3333C14.4477 17.3333 14 17.7811 14 18.3333C14 18.8856 14.4477 19.3333 15 19.3333Z" fill="url(#paint4_linear)"/>
<defs>
<linearGradient id="paint0_linear" x1="16" y1="4" x2="16" y2="13.3333" gradientUnits="userSpaceOnUse">
<stop stop-color="#F4ABAA"/>
<stop offset="1" stop-color="#C1436D"/>
</linearGradient>
<linearGradient id="paint1_linear" x1="16" y1="12.6667" x2="16" y2="28" gradientUnits="userSpaceOnUse">
<stop stop-color="#F4ABAA"/>
<stop offset="1" stop-color="#C1436D"/>
</linearGradient>
<linearGradient id="paint2_linear" x1="10.6666" y1="17.3333" x2="10.6666" y2="19.3333" gradientUnits="userSpaceOnUse">
<stop stop-color="#F4ABAA"/>
<stop offset="1" stop-color="#C1436D"/>
</linearGradient>
<linearGradient id="paint3_linear" x1="12" y1="18" x2="12" y2="19.3333" gradientUnits="userSpaceOnUse">
<stop stop-color="#F4ABAA"/>
<stop offset="1" stop-color="#C1436D"/>
</linearGradient>
<linearGradient id="paint4_linear" x1="15" y1="17.3333" x2="15" y2="19.3333" gradientUnits="userSpaceOnUse">
<stop stop-color="#F4ABAA"/>
<stop offset="1" stop-color="#C1436D"/>
</linearGradient>
</defs>
</svg>
