<svg width="32" height="32" viewBox="0 0 32 32" fill="none" xmlns="http://www.w3.org/2000/svg">
<path d="M5.75 7.25H17.25V17.75H5.75V7.25Z" fill="url(#paint0_linear)"/>
<path d="M19.5 19.75C19.5 19.8875 19.3875 20 19.25 20H15.75V22.2812H26.25V11.7812H19.5V19.75Z" fill="url(#paint1_linear)"/>
<path d="M27.5 9.53125H19.5V6C19.5 5.44687 19.0531 5 18.5 5H5.75V3.75C5.75 3.6125 5.6375 3.5 5.5 3.5H3.75C3.6125 3.5 3.5 3.6125 3.5 3.75V28.25C3.5 28.3875 3.6125 28.5 3.75 28.5H5.5C5.6375 28.5 5.75 28.3875 5.75 28.25V20H13.5V23.5312C13.5 24.0844 13.9469 24.5312 14.5 24.5312H27.5C28.0531 24.5312 28.5 24.0844 28.5 23.5312V10.5312C28.5 9.97813 28.0531 9.53125 27.5 9.53125ZM5.75 17.75V7.25H17.25V17.75H5.75ZM26.25 22.2812H15.75V20H19.25C19.3875 20 19.5 19.8875 19.5 19.75V11.7812H26.25V22.2812Z" fill="#C1436D"/>
<defs>
<linearGradient id="paint0_linear" x1="11.5" y1="7.25" x2="11.5" y2="17.75" gradientUnits="userSpaceOnUse">
<stop stop-color="#C1436D"/>
<stop offset="1" stop-color="#F4ABAA" stop-opacity="0"/>
</linearGradient>
<linearGradient id="paint1_linear" x1="21" y1="11.7812" x2="21" y2="22.2812" gradientUnits="userSpaceOnUse">
<stop stop-color="#C1436D"/>
<stop offset="1" stop-color="#F4ABAA" stop-opacity="0"/>
</linearGradient>
</defs>
</svg>
