<svg width="20" height="20" viewBox="0 0 20 20" fill="none" xmlns="http://www.w3.org/2000/svg">
<path d="M18.1575 1.23334L18.6492 1.72501C19.3267 2.40334 19.2242 3.60584 18.4184 4.41084L8.27921 14.55L4.99421 15.7517C4.58171 15.9033 4.18004 15.7067 4.09838 15.3142C4.07078 15.1718 4.08377 15.0245 4.13588 14.8892L5.36088 11.5758L15.4717 1.46418C16.2775 0.659178 17.48 0.555844 18.1575 1.23418V1.23334ZM7.83671 2.24168C7.94615 2.24168 8.05451 2.26323 8.15561 2.30511C8.25672 2.34699 8.34858 2.40837 8.42597 2.48576C8.50335 2.56314 8.56473 2.655 8.60661 2.75611C8.64849 2.85721 8.67004 2.96558 8.67004 3.07501C8.67004 3.18445 8.64849 3.29281 8.60661 3.39391C8.56473 3.49502 8.50335 3.58688 8.42597 3.66427C8.34858 3.74165 8.25672 3.80303 8.15561 3.84491C8.05451 3.88679 7.94615 3.90834 7.83671 3.90834H4.50338C4.06135 3.90834 3.63743 4.08394 3.32487 4.3965C3.01231 4.70906 2.83671 5.13298 2.83671 5.57501V15.575C2.83671 16.017 3.01231 16.441 3.32487 16.7535C3.63743 17.0661 4.06135 17.2417 4.50338 17.2417H14.5034C14.9454 17.2417 15.3693 17.0661 15.6819 16.7535C15.9945 16.441 16.17 16.017 16.17 15.575V12.2417C16.17 12.0207 16.2578 11.8087 16.4141 11.6524C16.5704 11.4961 16.7824 11.4083 17.0034 11.4083C17.2244 11.4083 17.4364 11.4961 17.5926 11.6524C17.7489 11.8087 17.8367 12.0207 17.8367 12.2417V15.575C17.8367 16.4591 17.4855 17.3069 16.8604 17.932C16.2353 18.5572 15.3874 18.9083 14.5034 18.9083H4.50338C3.61932 18.9083 2.77148 18.5572 2.14635 17.932C1.52123 17.3069 1.17004 16.4591 1.17004 15.575V5.57501C1.17004 4.69096 1.52123 3.84311 2.14635 3.21799C2.77148 2.59287 3.61932 2.24168 4.50338 2.24168H7.83671V2.24168Z" fill="#E5E5E5"/>
</svg>
